<svg width="130" height="131" viewBox="0 0 130 131" fill="none" xmlns="http://www.w3.org/2000/svg">
<g opacity="0.930588" clip-path="url(#clip0_3044_776)">
<path d="M74.3887 1.06641L74.3403 29.4116L74.292 57.7567L72.0673 51.1766V51.1598L69.1816 114.262C72.019 122.63 73.5343 127.101 73.5504 127.118C73.5666 127.135 75.1787 127.236 77.1293 127.337C83.0295 127.641 90.3485 128.299 95.9102 129.025C97.1999 129.193 98.2962 129.278 98.3767 129.21C98.4573 129.142 98.4734 100.291 98.4573 65.0793L98.409 1.06641H74.3887Z" fill="#B1060F"/>
<path d="M30.9434 0.981718V65.062C30.9434 100.308 30.9756 129.176 31.024 129.227C31.0723 129.277 33.1519 129.058 35.6668 128.771C38.1817 128.485 41.6476 128.113 43.3726 127.961C46.0165 127.725 53.948 127.202 54.8508 127.185C55.1248 127.185 55.1409 125.752 55.1732 100.038L55.2216 72.8907L57.1399 78.5597C57.4301 79.4372 57.5268 79.7071 57.817 80.5676L60.7027 17.4827C60.0901 15.6774 60.4125 16.6221 59.7193 14.5638C57.3656 7.59559 55.3666 1.70722 55.286 1.43726L55.1248 0.964844H30.9434V0.981718Z" fill="#B1060F"/>
<path d="M74.3887 1.06641L74.3403 29.4116L74.292 57.7567L72.0673 51.1766V51.1598L69.1816 114.262C72.019 122.63 73.5343 127.101 73.5504 127.118C73.5666 127.135 75.1787 127.236 77.1293 127.337C83.0295 127.641 90.3485 128.299 95.9102 129.025C97.1999 129.193 98.2962 129.278 98.3767 129.21C98.4573 129.142 98.4734 100.291 98.4573 65.0793L98.409 1.06641H74.3887Z" fill="#B1060F"/>
<path d="M30.9434 0.981718V65.062C30.9434 100.308 30.9756 129.176 31.024 129.227C31.0723 129.277 33.1519 129.058 35.6668 128.771C38.1817 128.485 41.6476 128.113 43.3726 127.961C46.0165 127.725 53.948 127.202 54.8508 127.185C55.1248 127.185 55.1409 125.752 55.1732 100.038L55.2216 72.8907L57.1399 78.5597C57.4301 79.4372 57.5268 79.7071 57.817 80.5676L60.7027 17.4827C60.0901 15.6774 60.4125 16.6221 59.7193 14.5638C57.3656 7.59559 55.3666 1.70722 55.286 1.43726L55.1248 0.964844H30.9434V0.981718Z" fill="#B1060F"/>
<path d="M30.9434 0.981718V36.9531L55.1571 104.172C55.1571 102.636 55.1571 101.793 55.1732 100.038L55.2216 72.8907L57.1399 78.5597C67.7798 110.144 73.5028 127.084 73.535 127.118C73.5511 127.134 75.1632 127.235 77.1138 127.338C83.0141 127.641 90.333 128.299 95.8948 129.025C97.1845 129.194 98.2807 129.277 98.3613 129.21C98.4097 129.159 98.4419 115.02 98.4419 95.0607L74.3572 22.5443L74.341 29.4112L74.2927 57.7565L72.0679 51.1763C69.8916 44.748 68.4408 40.4456 59.6871 14.5638C57.3334 7.59559 55.3344 1.70722 55.2538 1.43726L55.0926 0.964844H30.9434V0.981718Z" fill="url(#paint0_radial_3044_776)"/>
<path d="M30.9434 0.981718L55.2055 72.9414V72.9076L57.1238 78.5766C67.7798 110.144 73.5028 127.084 73.535 127.118C73.5511 127.134 75.1632 127.235 77.1138 127.338C83.0141 127.641 90.333 128.299 95.8947 129.025C97.1683 129.194 98.2807 129.277 98.3451 129.21L74.2927 57.7396V57.7565L72.0679 51.1763C69.8916 44.748 68.4408 40.4456 59.6871 14.5638C57.3334 7.59559 55.3344 1.70722 55.2538 1.43726L55.0925 0.964844H43.0179L30.9434 0.981718Z" fill="#E50914"/>
</g>
<defs>
<radialGradient id="paint0_radial_3044_776" cx="0" cy="0" r="1" gradientUnits="userSpaceOnUse" gradientTransform="translate(63.5626 64.3552) rotate(-19.9221) scale(4.47123 169.685)">
<stop/>
<stop offset="1" stop-opacity="0"/>
</radialGradient>
<clipPath id="clip0_3044_776">
<rect width="68.7407" height="129.625" fill="white" transform="translate(30.6602 0.685547)"/>
</clipPath>
</defs>
</svg>
