<svg width="110" height="117" viewBox="0 0 110 117" fill="none" xmlns="http://www.w3.org/2000/svg">
<path d="M79.7092 108.416L58.4676 97.0799V95.502C58.4676 94.4007 58.057 93.3445 57.3261 92.5658C56.5951 91.7871 55.6038 91.3496 54.5701 91.3496C53.5364 91.3496 52.545 91.7871 51.8141 92.5658C51.0832 93.3445 50.6726 94.4007 50.6726 95.502V97.0799L29.431 108.416C28.5878 108.956 27.9677 109.817 27.6953 110.824C27.4229 111.832 27.5182 112.912 27.9623 113.847C28.4063 114.783 29.1662 115.505 30.0893 115.869C31.0123 116.232 32.0303 116.21 32.9388 115.807L50.6726 106.381V107.959C50.6726 109.06 51.0832 110.116 51.8141 110.895C52.545 111.674 53.5364 112.111 54.5701 112.111C55.6038 112.111 56.5951 111.674 57.3261 110.895C58.057 110.116 58.4676 109.06 58.4676 107.959V106.381L76.2014 115.807C76.7405 116.114 77.3438 116.272 77.9553 116.264C78.675 116.261 79.3801 116.047 79.9924 115.644C80.6046 115.241 81.1002 114.665 81.4241 113.98C81.8864 112.999 81.9655 111.864 81.6441 110.821C81.3228 109.778 80.6271 108.914 79.7092 108.416Z" fill="#263238"/>
<path d="M81.5376 77.3225C81.2452 76.5642 80.7486 75.9151 80.1105 75.4569C79.4724 74.9988 78.7213 74.7521 77.9518 74.748H31.1815C30.412 74.7521 29.6609 74.9988 29.0228 75.4569C28.3847 75.9151 27.8881 76.5642 27.5957 77.3225C27.2973 78.0787 27.2157 78.9121 27.3614 79.7176C27.5071 80.5232 27.8734 81.2647 28.4142 81.8486L40.1068 94.3057C40.471 94.6905 40.9029 94.995 41.3778 95.2016C41.8526 95.4083 42.3611 95.513 42.8741 95.5098H66.2592C66.7722 95.513 67.2807 95.4083 67.7555 95.2016C68.2304 94.995 68.6623 94.6905 69.0265 94.3057L80.7191 81.8486C81.2599 81.2647 81.6262 80.5232 81.7719 79.7176C81.9176 78.9121 81.836 78.0787 81.5376 77.3225Z" fill="#FF6F00"/>
<path d="M97.4383 0L11.6926 0C5.23495 0 0 5.57722 0 12.4571L0 70.5901C0 77.47 5.23495 83.0472 11.6926 83.0472H97.4383C103.896 83.0472 109.131 77.47 109.131 70.5901V12.4571C109.131 5.57722 103.896 0 97.4383 0Z" fill="#455A64"/>
<path d="M81.8438 29.0664H27.2784C26.2447 29.0664 25.2533 28.629 24.5224 27.8502C23.7915 27.0715 23.3809 26.0154 23.3809 24.9141C23.3809 23.8128 23.7915 22.7566 24.5224 21.9779C25.2533 21.1992 26.2447 20.7617 27.2784 20.7617H81.8438C82.8775 20.7617 83.8689 21.1992 84.5998 21.9779C85.3307 22.7566 85.7413 23.8128 85.7413 24.9141C85.7413 26.0154 85.3307 27.0715 84.5998 27.8502C83.8689 28.629 82.8775 29.0664 81.8438 29.0664Z" fill="#BDBDBD"/>
<path d="M46.766 45.6758H27.2784C26.2447 45.6758 25.2533 45.2383 24.5224 44.4596C23.7915 43.6809 23.3809 42.6247 23.3809 41.5235C23.3809 40.4222 23.7915 39.366 24.5224 38.5873C25.2533 37.8086 26.2447 37.3711 27.2784 37.3711H46.766C47.7997 37.3711 48.7911 37.8086 49.522 38.5873C50.2529 39.366 50.6636 40.4222 50.6636 41.5235C50.6636 42.6247 50.2529 43.6809 49.522 44.4596C48.7911 45.2383 47.7997 45.6758 46.766 45.6758Z" fill="#F5F5F5"/>
<path d="M66.2635 62.2852H27.2882C26.2545 62.2852 25.2631 61.8477 24.5322 61.069C23.8013 60.2903 23.3906 59.2341 23.3906 58.1328C23.3906 57.0316 23.8013 55.9754 24.5322 55.1967C25.2631 54.4179 26.2545 53.9805 27.2882 53.9805H66.2635C67.2971 53.9805 68.2885 54.4179 69.0194 55.1967C69.7504 55.9754 70.161 57.0316 70.161 58.1328C70.161 59.2341 69.7504 60.2903 69.0194 61.069C68.2885 61.8477 67.2971 62.2852 66.2635 62.2852Z" fill="#BDBDBD"/>
<path d="M50.6726 95.502V97.0799L29.431 108.416C28.5878 108.956 27.9677 109.817 27.6953 110.824C27.4229 111.832 27.5182 112.912 27.9623 113.847C28.4063 114.783 29.1662 115.505 30.0893 115.869C31.0123 116.232 32.0303 116.21 32.9388 115.807L50.6726 106.381V107.959C50.6726 109.06 51.0832 110.116 51.8141 110.895C52.545 111.674 53.5364 112.111 54.5701 112.111V91.3496C53.5364 91.3496 52.545 91.7871 51.8141 92.5658C51.0832 93.3445 50.6726 94.4007 50.6726 95.502Z" fill="#616161"/>
<path d="M31.1815 74.748C30.412 74.7521 29.6609 74.9988 29.0228 75.4569C28.3847 75.9151 27.8881 76.5642 27.5957 77.3225C27.2973 78.0787 27.2157 78.9121 27.3614 79.7176C27.5071 80.5232 27.8734 81.2647 28.4142 81.8486L40.1068 94.3057C40.471 94.6905 40.9029 94.995 41.3778 95.2016C41.8526 95.4083 42.3611 95.513 42.8741 95.5098H54.5667V74.748H31.1815Z" fill="#FFA000"/>
<path d="M11.6926 0C8.59152 0 5.61747 1.31244 3.42468 3.64859C1.23189 5.98475 0 9.15325 0 12.4571L0 70.5901C0 73.8939 1.23189 77.0624 3.42468 79.3986C5.61747 81.7347 8.59152 83.0472 11.6926 83.0472H54.5654L54.5654 0L11.6926 0Z" fill="#78909C"/>
<path d="M27.2784 20.7617C26.2447 20.7617 25.2533 21.1992 24.5224 21.9779C23.7915 22.7566 23.3809 23.8128 23.3809 24.9141C23.3809 26.0154 23.7915 27.0715 24.5224 27.8502C25.2533 28.629 26.2447 29.0664 27.2784 29.0664H54.5611V20.7617H27.2784Z" fill="#F5F5F5"/>
<path d="M46.766 37.3711H27.2784C26.2447 37.3711 25.2533 37.8086 24.5224 38.5873C23.7915 39.366 23.3809 40.4222 23.3809 41.5235C23.3809 42.6247 23.7915 43.6809 24.5224 44.4596C25.2533 45.2383 26.2447 45.6758 27.2784 45.6758H46.766C47.7997 45.6758 48.7911 45.2383 49.522 44.4596C50.2529 43.6809 50.6636 42.6247 50.6636 41.5235C50.6636 40.4222 50.2529 39.366 49.522 38.5873C48.7911 37.8086 47.7997 37.3711 46.766 37.3711Z" fill="#F5F5F5"/>
<path d="M27.2882 53.9805C26.2545 53.9805 25.2631 54.4179 24.5322 55.1967C23.8013 55.9754 23.3906 57.0316 23.3906 58.1328C23.3906 59.2341 23.8013 60.2903 24.5322 61.069C25.2631 61.8477 26.2545 62.2852 27.2882 62.2852H54.5709V53.9805H27.2882Z" fill="#F5F5F5"/>
<path d="M97.4383 0L11.6926 0C8.59152 0 5.61747 1.31244 3.42468 3.64859C1.23189 5.98475 0 9.15325 0 12.4571L0 70.5901C0 73.8939 1.23189 77.0624 3.42468 79.3986C5.61747 81.7347 8.59152 83.0472 11.6926 83.0472H29.5823L40.1056 94.3001C40.4698 94.6849 40.9017 94.9894 41.3766 95.196C41.8514 95.4027 42.3599 95.5074 42.8728 95.5043H66.258C66.771 95.5074 67.2794 95.4027 67.7543 95.196C68.2292 94.9894 68.6611 94.6849 69.0253 94.3001L79.5486 83.0472H97.4383C100.539 83.0472 103.513 81.7347 105.706 79.3986C107.899 77.0624 109.131 73.8939 109.131 70.5901V12.4571C109.131 9.15325 107.899 5.98475 105.706 3.64859C103.513 1.31244 100.539 0 97.4383 0ZM64.66 87.1995H44.4708L40.5733 83.0472H68.5576L64.66 87.1995ZM101.336 70.5901C101.336 71.6914 100.925 72.7476 100.194 73.5263C99.4633 74.305 98.472 74.7425 97.4383 74.7425H11.6926C10.6589 74.7425 9.66755 74.305 8.93662 73.5263C8.20569 72.7476 7.79506 71.6914 7.79506 70.5901L7.79506 12.4571C7.79506 11.3558 8.20569 10.2996 8.93662 9.52092C9.66755 8.7422 10.6589 8.30472 11.6926 8.30472H97.4383C98.472 8.30472 99.4633 8.7422 100.194 9.52092C100.925 10.2996 101.336 11.3558 101.336 12.4571V70.5901Z" fill="#263238"/>
</svg>
