<svg width="217" height="217" viewBox="0 0 217 217" fill="none" xmlns="http://www.w3.org/2000/svg">
<rect x="0.03125" y="0.623047" width="216" height="216" rx="36.6897" fill="white" fill-opacity="0.930588"/>
<g opacity="0.930588" clip-path="url(#clip0_3044_790)">
<path d="M50.6522 117.913C51.1969 119.315 51.951 120.515 52.9147 121.511C53.8784 122.507 55.0201 123.269 56.3398 123.797C57.6596 124.326 59.0946 124.59 60.6448 124.59C62.1532 124.59 63.5672 124.316 64.887 123.767C66.2069 123.218 67.359 122.446 68.3436 121.45C69.3281 120.453 70.0928 119.265 70.6375 117.882C71.1822 116.5 71.4545 114.955 71.4545 113.248V86.9043H78.0534V129.59H71.5173V125.627C70.0509 127.131 68.3226 128.289 66.3324 129.103C64.3422 129.916 62.1951 130.322 59.8907 130.322C57.5444 130.322 55.3552 129.926 53.3231 129.133C51.2912 128.34 49.5313 127.212 48.0441 125.749C46.5568 124.285 45.3836 122.527 44.5247 120.474C43.6657 118.421 43.2363 116.134 43.2363 113.614V86.9043H49.8352V113.248C49.8352 114.955 50.1075 116.51 50.6522 117.913Z" fill="#010202"/>
<path d="M89.4275 86.9043V102.454C90.8939 101.031 92.5909 99.9033 94.5181 99.0698C96.4454 98.2363 98.5403 97.8197 100.803 97.8197C103.149 97.8197 105.348 98.2465 107.402 99.1002C109.455 99.9539 111.235 101.113 112.743 102.576C114.252 104.04 115.446 105.767 116.326 107.759C117.205 109.752 117.646 111.866 117.646 114.101C117.646 116.337 117.205 118.441 116.326 120.413C115.446 122.384 114.252 124.102 112.743 125.565C111.235 127.029 109.455 128.188 107.402 129.041C105.348 129.895 103.149 130.322 100.803 130.322C98.5402 130.322 96.4349 129.905 94.4867 129.072C92.5384 128.238 90.8311 127.11 89.3646 125.687V129.59H83.0801V86.9043H89.4275ZM90.1502 118.309C90.7157 119.61 91.5014 120.748 92.507 121.724C93.5125 122.7 94.6857 123.472 96.0263 124.041C97.3672 124.61 98.8126 124.895 100.363 124.895C101.871 124.895 103.296 124.61 104.636 124.041C105.977 123.472 107.14 122.7 108.124 121.724C109.109 120.748 109.895 119.61 110.481 118.309C111.068 117.008 111.361 115.606 111.361 114.101C111.361 112.597 111.068 111.185 110.481 109.863C109.895 108.542 109.109 107.394 108.124 106.418C107.14 105.442 105.977 104.68 104.636 104.131C103.296 103.582 101.871 103.308 100.363 103.308C98.8546 103.308 97.43 103.582 96.0894 104.131C94.7487 104.68 93.5756 105.442 92.5699 106.418C91.5644 107.394 90.7683 108.542 90.1817 109.863C89.5952 111.185 89.3019 112.597 89.3019 114.101C89.3018 115.606 89.5846 117.008 90.1502 118.309Z" fill="#010202"/>
<path d="M121.227 107.82C122.065 105.869 123.218 104.152 124.684 102.668C126.15 101.184 127.889 100.015 129.901 99.1614C131.912 98.3077 134.09 97.8809 136.436 97.8809C138.741 97.8809 140.878 98.2874 142.847 99.1004C144.816 99.9135 146.512 101.042 147.937 102.485C149.362 103.928 150.473 105.636 151.268 107.607C152.065 109.579 152.462 111.723 152.462 114.041V116.053H126.381C126.591 117.313 127.01 118.482 127.638 119.559C128.267 120.637 129.052 121.572 129.995 122.364C130.937 123.157 132.006 123.777 133.2 124.224C134.394 124.671 135.661 124.895 137.002 124.895C140.815 124.895 143.895 123.37 146.24 120.321L150.829 123.614C149.236 125.688 147.267 127.314 144.921 128.493C142.575 129.672 139.935 130.261 137.003 130.261C134.614 130.261 132.383 129.854 130.309 129.042C128.235 128.229 126.433 127.09 124.904 125.627C123.375 124.163 122.171 122.445 121.29 120.474C120.411 118.502 119.971 116.358 119.971 114.04C119.971 111.845 120.39 109.772 121.227 107.82ZM130.058 105.412C128.277 106.855 127.093 108.776 126.507 111.174H146.052C145.508 108.776 144.345 106.855 142.564 105.412C140.783 103.969 138.699 103.247 136.31 103.247C133.923 103.247 131.838 103.969 130.058 105.412Z" fill="#010202"/>
<path d="M164.339 106.113C162.999 107.535 162.328 109.466 162.328 111.906V129.59H155.98V98.4902H162.265V102.332C163.062 101.072 164.098 100.076 165.376 99.3439C166.654 98.6121 168.173 98.2461 169.933 98.2461H172.132V103.978H169.492C167.398 103.978 165.68 104.69 164.339 106.113Z" fill="#010202"/>
</g>
<defs>
<clipPath id="clip0_3044_790">
<rect width="129.589" height="43.4375" fill="white" transform="translate(43.2363 86.9043)"/>
</clipPath>
</defs>
</svg>
