<svg width="217" height="217" viewBox="0 0 217 217" fill="none" xmlns="http://www.w3.org/2000/svg">
<rect x="0.96875" y="0.472656" width="216" height="216" rx="36.6897" fill="white" fill-opacity="0.930588"/>
<g opacity="0.930588" clip-path="url(#clip0_3044_766)">
<path d="M155.749 150.022C102.421 175.401 69.3255 154.166 48.1399 141.27C46.8289 140.457 44.6007 141.46 46.534 143.68C53.592 152.238 76.7225 172.866 106.915 172.866C137.127 172.866 155.101 156.38 157.35 153.504C159.583 150.653 158.006 149.08 155.748 150.022H155.749ZM170.726 141.75C169.294 139.886 162.017 139.538 157.438 140.101C152.853 140.647 145.969 143.45 146.568 145.133C146.875 145.763 147.501 145.48 150.652 145.197C153.811 144.882 162.661 143.765 164.505 146.175C166.358 148.603 161.683 160.166 160.828 162.03C160.004 163.896 161.144 164.376 162.694 163.134C164.221 161.893 166.989 158.677 168.845 154.127C170.689 149.552 171.814 143.17 170.725 141.75H170.726Z" fill="#FF9900"/>
<path fill-rule="evenodd" clip-rule="evenodd" d="M119.891 98.2328C119.891 104.892 120.059 110.445 116.693 116.359C113.977 121.168 109.673 124.125 104.865 124.125C98.302 124.125 94.4796 119.124 94.4796 111.744C94.4796 97.1748 107.533 94.5305 119.891 94.5305V98.2328ZM137.128 139.896C135.998 140.905 134.363 140.978 133.089 140.304C127.416 135.592 126.406 133.405 123.281 128.909C113.905 138.477 107.269 141.338 95.1049 141.338C80.7286 141.338 69.5254 132.467 69.5254 114.701C69.5254 100.829 77.0506 91.3811 87.748 86.7657C97.028 82.6783 109.986 81.9571 119.891 80.8275V78.6156C119.891 74.5525 120.203 69.7445 117.823 66.2348C115.732 63.0853 111.741 61.787 108.231 61.787C101.716 61.787 95.898 65.1285 94.4796 72.0522C94.1908 73.5912 93.0612 75.1059 91.5228 75.1778L74.9343 73.3992C73.5403 73.086 72.0018 71.9564 72.3864 69.8164C76.2089 49.7188 94.3589 43.6602 110.61 43.6602C118.929 43.6602 129.795 45.8721 136.358 52.171C144.676 59.9359 143.883 70.2973 143.883 81.5724V108.21C143.883 116.215 147.201 119.725 150.326 124.053C151.431 125.591 151.672 127.443 150.278 128.596C146.792 131.505 140.589 136.914 137.176 139.944L137.127 139.896" fill="black"/>
<path d="M155.749 150.022C102.421 175.401 69.3255 154.166 48.1399 141.27C46.8289 140.457 44.6007 141.46 46.534 143.68C53.592 152.238 76.7225 172.866 106.915 172.866C137.127 172.866 155.101 156.38 157.35 153.504C159.583 150.653 158.006 149.08 155.748 150.022H155.749ZM170.726 141.75C169.294 139.886 162.017 139.538 157.438 140.101C152.853 140.647 145.969 143.45 146.568 145.133C146.875 145.763 147.501 145.48 150.652 145.197C153.811 144.882 162.661 143.765 164.505 146.175C166.358 148.603 161.683 160.166 160.828 162.03C160.004 163.896 161.144 164.376 162.694 163.134C164.221 161.893 166.989 158.677 168.845 154.127C170.689 149.552 171.814 143.17 170.725 141.75H170.726Z" fill="#FF9900"/>
<path fill-rule="evenodd" clip-rule="evenodd" d="M119.891 98.2328C119.891 104.892 120.059 110.445 116.693 116.359C113.977 121.168 109.673 124.125 104.865 124.125C98.302 124.125 94.4796 119.124 94.4796 111.744C94.4796 97.1748 107.533 94.5305 119.891 94.5305V98.2328ZM137.128 139.896C135.998 140.905 134.363 140.978 133.089 140.304C127.416 135.592 126.406 133.405 123.281 128.909C113.905 138.477 107.269 141.338 95.1049 141.338C80.7286 141.338 69.5254 132.467 69.5254 114.701C69.5254 100.829 77.0506 91.3811 87.748 86.7657C97.028 82.6783 109.986 81.9571 119.891 80.8275V78.6156C119.891 74.5525 120.203 69.7445 117.823 66.2348C115.732 63.0853 111.741 61.787 108.231 61.787C101.716 61.787 95.898 65.1285 94.4796 72.0522C94.1908 73.5912 93.0612 75.1059 91.5228 75.1778L74.9343 73.3992C73.5403 73.086 72.0018 71.9564 72.3864 69.8164C76.2089 49.7188 94.3589 43.6602 110.61 43.6602C118.929 43.6602 129.795 45.8721 136.358 52.171C144.676 59.9359 143.883 70.2973 143.883 81.5724V108.21C143.883 116.215 147.201 119.725 150.326 124.053C151.431 125.591 151.672 127.443 150.278 128.596C146.792 131.505 140.589 136.914 137.176 139.944L137.127 139.896" fill="black"/>
</g>
<defs>
<clipPath id="clip0_3044_766">
<rect width="126.384" height="129.625" fill="white" transform="translate(45.7773 43.6602)"/>
</clipPath>
</defs>
</svg>
