<svg width="217" height="217" viewBox="0 0 217 217" fill="none" xmlns="http://www.w3.org/2000/svg">
<rect x="0.96875" y="0.410156" width="216" height="216" rx="36.6897" fill="white" fill-opacity="0.930588"/>
<g opacity="0.930588" clip-path="url(#clip0_3044_762)">
<path d="M108.821 43.5977C73.1083 43.5977 44.1562 72.5497 44.1562 108.263C44.1562 143.978 73.1083 172.928 108.821 172.928C144.538 172.928 173.487 143.978 173.487 108.263C173.487 72.552 144.538 43.6007 108.82 43.6007L108.821 43.5977ZM138.476 136.864C138.2 137.316 137.837 137.709 137.409 138.021C136.981 138.333 136.496 138.558 135.981 138.682C135.466 138.806 134.931 138.827 134.408 138.744C133.885 138.662 133.383 138.477 132.932 138.2C117.749 128.926 98.6359 126.825 76.1268 131.968C75.0846 132.205 73.9909 132.019 73.086 131.45C72.1812 130.881 71.5393 129.975 71.3015 128.933C71.1831 128.417 71.1675 127.883 71.2558 127.361C71.3441 126.839 71.5345 126.34 71.8161 125.891C72.0977 125.443 72.465 125.055 72.8968 124.749C73.3288 124.442 73.8168 124.224 74.333 124.107C98.9656 118.479 120.095 120.902 137.14 131.319C139.04 132.486 139.642 134.964 138.476 136.864ZM146.39 119.256C144.931 121.628 141.827 122.377 139.456 120.918C122.075 110.234 95.5789 107.14 75.0196 113.381C72.3532 114.186 69.537 112.683 68.7278 110.021C68.3416 108.742 68.4788 107.361 69.109 106.182C69.7393 105.004 70.8112 104.123 72.0899 103.733C95.5742 96.6076 124.77 100.059 144.731 112.326C147.101 113.785 147.85 116.889 146.39 119.257V119.256ZM147.07 100.921C126.229 88.542 91.8438 87.4037 71.9455 93.4431C68.7502 94.4122 65.3712 92.6084 64.4028 89.413C63.9372 87.8778 64.1004 86.2206 64.8564 84.8056C65.6124 83.3907 66.8994 82.334 68.4344 81.8678C91.2762 74.9335 129.248 76.2733 153.243 90.518C153.927 90.9226 154.525 91.458 155.001 92.0939C155.478 92.7296 155.824 93.4532 156.021 94.223C156.217 94.9929 156.259 95.794 156.146 96.5805C156.032 97.3669 155.765 98.1232 155.359 98.806C153.66 101.68 149.938 102.628 147.074 100.921H147.07Z" fill="#61D96C"/>
</g>
<defs>
<clipPath id="clip0_3044_762">
<rect width="129.625" height="129.625" fill="white" transform="translate(44.1562 43.5977)"/>
</clipPath>
</defs>
</svg>
