<svg width="217" height="217" viewBox="0 0 217 217" fill="none" xmlns="http://www.w3.org/2000/svg">
<rect x="0.96875" y="0.347656" width="216" height="216" rx="36.6897" fill="white" fill-opacity="0.930588"/>
<g opacity="0.930588" clip-path="url(#clip0_3044_757)">
<path d="M130.827 110.326C130.827 110.326 130.116 110.374 129.767 110.429C128.417 110.647 128.016 111.012 128.016 112.673V125.777C128.016 127.564 129.129 127.67 130.698 127.759C134.53 127.976 136.755 124.573 136.755 119.069C136.755 113.561 134.545 110.326 130.827 110.326C130.827 110.326 130.116 110.374 129.767 110.43C128.417 110.647 128.016 111.012 128.016 112.673V125.777C128.016 127.564 129.129 127.671 130.698 127.759C134.53 127.976 136.756 124.573 136.756 119.069C136.756 113.561 134.545 110.327 130.827 110.327L130.827 110.326ZM90.6076 110.518C87.1713 110.518 85.049 113.797 85.049 119.231C85.049 124.544 87.1372 127.76 90.6706 127.76C94.1079 127.76 96.2633 124.418 96.2633 119.173C96.2633 113.86 94.0749 110.518 90.6076 110.518ZM111.118 110.518C107.681 110.518 105.554 113.797 105.554 119.231C105.554 124.544 107.648 127.76 111.18 127.76C114.614 127.76 116.769 124.418 116.769 119.173C116.769 113.86 114.584 110.518 111.118 110.518ZM130.827 110.327C130.827 110.327 130.116 110.374 129.767 110.43C128.418 110.647 128.016 111.012 128.016 112.674V125.777C128.016 127.564 129.129 127.671 130.699 127.759C134.53 127.976 136.756 124.573 136.756 119.069C136.756 113.561 134.545 110.327 130.828 110.327C130.828 110.327 130.116 110.375 129.767 110.43C128.418 110.647 128.016 111.013 128.016 112.674V125.778C128.016 127.565 129.129 127.671 130.699 127.759C134.53 127.977 136.756 124.573 136.756 119.069C136.756 113.562 134.545 110.327 130.828 110.327L130.827 110.327ZM111.118 110.519C107.681 110.519 105.554 113.797 105.554 119.232C105.554 124.544 107.648 127.76 111.18 127.76C114.614 127.76 116.769 124.419 116.769 119.173C116.769 113.86 114.584 110.519 111.118 110.519ZM90.6078 110.519C87.1715 110.519 85.0492 113.797 85.0492 119.232C85.0492 124.544 87.1374 127.76 90.6708 127.76C94.1081 127.76 96.2634 124.419 96.2634 119.173C96.2634 113.86 94.0751 110.519 90.6078 110.519ZM93.4159 141.315C93.3637 141.219 92.5938 139.627 92.5022 139.428C92.417 139.251 92.204 139.24 92.1263 139.435C92.0379 139.653 91.2787 141.179 91.2275 141.288C91.1424 141.469 91.2382 141.588 91.4118 141.588H93.2274C93.3605 141.588 93.4925 141.469 93.4158 141.315L93.4159 141.315ZM90.6078 110.519C87.1714 110.519 85.0491 113.798 85.0491 119.232C85.0491 124.545 87.1374 127.76 90.6707 127.76C94.1081 127.76 96.2634 124.419 96.2634 119.173C96.2634 113.861 94.075 110.519 90.6078 110.519ZM111.118 110.519C107.681 110.519 105.554 113.798 105.554 119.232C105.554 124.545 107.648 127.76 111.18 127.76C114.614 127.76 116.769 124.419 116.769 119.173C116.769 113.861 114.584 110.519 111.118 110.519ZM130.828 110.327C130.828 110.327 130.116 110.375 129.767 110.43C128.418 110.648 128.016 111.013 128.016 112.674V125.778C128.016 127.565 129.129 127.671 130.699 127.76C134.53 127.977 136.756 124.574 136.756 119.07C136.756 113.562 134.545 110.327 130.828 110.327C130.828 110.327 130.116 110.375 129.767 110.431C128.418 110.648 128.016 111.013 128.016 112.674V125.778C128.016 127.565 129.129 127.672 130.699 127.76C134.53 127.977 136.756 124.574 136.756 119.07C136.756 113.562 134.545 110.328 130.828 110.328L130.828 110.327ZM111.118 110.519C107.681 110.519 105.554 113.798 105.554 119.232C105.554 124.545 107.648 127.761 111.18 127.761C114.614 127.761 116.77 124.419 116.77 119.174C116.77 113.861 114.584 110.519 111.118 110.519ZM90.6079 110.519C87.1716 110.519 85.0493 113.798 85.0493 119.232C85.0493 124.545 87.1375 127.761 90.6709 127.761C94.1082 127.761 96.2636 124.419 96.2636 119.174C96.2636 113.861 94.0752 110.519 90.6079 110.519ZM93.416 141.315C93.3638 141.219 92.5939 139.628 92.5024 139.428C92.4171 139.252 92.2041 139.241 92.1264 139.436C92.038 139.653 91.2788 141.179 91.2276 141.289C91.1425 141.47 91.2383 141.588 91.4119 141.588H93.2275C93.3606 141.588 93.4926 141.47 93.4159 141.316C93.3638 141.22 92.5939 139.628 92.5023 139.429C92.4171 139.252 92.2041 139.241 92.1263 139.436C92.038 139.654 91.2788 141.179 91.2276 141.289C91.1425 141.47 91.2383 141.588 91.4118 141.588H93.2275C93.3606 141.588 93.4926 141.47 93.4159 141.316L93.416 141.315ZM90.6078 110.519C87.1715 110.519 85.0492 113.798 85.0492 119.232C85.0492 124.545 87.1374 127.76 90.6708 127.76C94.1081 127.76 96.2635 124.419 96.2635 119.173C96.2635 113.861 94.0751 110.519 90.6078 110.519ZM105.238 138.069H102.924C102.685 138.069 102.435 138.153 102.435 138.451V140.139C102.435 140.404 102.685 140.559 102.924 140.559H105.238C106.016 140.559 106.649 140.15 106.649 139.314C106.649 138.478 106.016 138.069 105.238 138.069ZM111.119 110.519C107.681 110.519 105.555 113.798 105.555 119.232C105.555 124.545 107.648 127.76 111.18 127.76C114.615 127.76 116.77 124.419 116.77 119.173C116.77 113.861 114.585 110.519 111.119 110.519ZM130.828 110.327C130.828 110.327 130.117 110.375 129.767 110.431C128.418 110.648 128.017 111.013 128.017 112.674V125.778C128.017 127.565 129.13 127.671 130.699 127.76C134.531 127.977 136.756 124.574 136.756 119.07C136.756 113.562 134.546 110.327 130.828 110.327C130.828 110.327 130.117 110.375 129.767 110.431C128.418 110.648 128.017 111.013 128.017 112.674V125.778C128.017 127.565 129.13 127.672 130.699 127.76C134.531 127.977 136.756 124.574 136.756 119.07C136.756 113.562 134.546 110.328 130.828 110.328L130.828 110.327ZM111.119 110.519C107.681 110.519 105.555 113.798 105.555 119.233C105.555 124.545 107.648 127.761 111.181 127.761C114.615 127.761 116.77 124.419 116.77 119.174C116.77 113.861 114.585 110.519 111.119 110.519ZM90.6084 110.519C87.1721 110.519 85.0498 113.798 85.0498 119.233C85.0498 124.545 87.138 127.761 90.6714 127.761C94.1087 127.761 96.2641 124.419 96.2641 119.174C96.2641 113.861 94.0757 110.519 90.6084 110.519ZM105.239 138.07H102.925C102.685 138.07 102.435 138.154 102.435 138.452V140.14C102.435 140.405 102.685 140.559 102.925 140.559H105.239C106.016 140.559 106.65 140.15 106.65 139.315C106.65 138.479 106.016 138.07 105.239 138.07ZM93.4163 141.315C93.3641 141.22 92.5943 139.628 92.5027 139.428C92.4175 139.252 92.2045 139.241 92.1267 139.436C92.0384 139.653 91.2791 141.179 91.228 141.289C91.1428 141.47 91.2387 141.588 91.4122 141.588H93.2279C93.3609 141.588 93.493 141.47 93.4163 141.316C93.3641 141.22 92.5942 139.628 92.5027 139.429C92.4174 139.252 92.2044 139.241 92.1267 139.436C92.0383 139.654 91.2791 141.18 91.2279 141.289C91.1428 141.47 91.2386 141.588 91.4122 141.588H93.2277C93.3609 141.588 93.4929 141.47 93.4162 141.316L93.4163 141.315ZM90.6082 110.519C87.1719 110.519 85.0496 113.798 85.0496 119.232C85.0496 124.545 87.1378 127.76 90.6711 127.76C94.1085 127.76 96.2638 124.419 96.2638 119.173C96.2638 113.861 94.0754 110.519 90.6082 110.519ZM105.239 138.069H102.925C102.685 138.069 102.435 138.153 102.435 138.452V140.139C102.435 140.404 102.685 140.559 102.925 140.559H105.239C106.016 140.559 106.65 140.15 106.65 139.314C106.65 138.478 106.016 138.069 105.239 138.069ZM111.119 110.519C107.682 110.519 105.555 113.798 105.555 119.232C105.555 124.545 107.649 127.761 111.181 127.761C114.615 127.761 116.77 124.419 116.77 119.173C116.77 113.861 114.585 110.519 111.119 110.519ZM130.828 110.327C130.828 110.327 130.117 110.375 129.768 110.431C128.419 110.648 128.017 111.013 128.017 112.674V125.778C128.017 127.565 129.13 127.672 130.7 127.76C134.531 127.977 136.757 124.574 136.757 119.07C136.757 113.562 134.546 110.328 130.829 110.328C130.829 110.328 130.117 110.375 129.768 110.431C128.419 110.648 128.017 111.013 128.017 112.675V125.778C128.017 127.565 129.13 127.672 130.7 127.76C134.531 127.977 136.757 124.574 136.757 119.07C136.757 113.562 134.546 110.328 130.829 110.328L130.828 110.327ZM111.119 110.519C107.682 110.519 105.555 113.798 105.555 119.233C105.555 124.545 107.649 127.761 111.181 127.761C114.615 127.761 116.77 124.419 116.77 119.174C116.77 113.861 114.585 110.519 111.119 110.519ZM90.6088 110.519C87.1725 110.519 85.0502 113.798 85.0502 119.233C85.0502 124.545 87.1384 127.761 90.6716 127.761C94.1091 127.761 96.2644 124.419 96.2644 119.174C96.2644 113.861 94.076 110.519 90.6088 110.519ZM105.239 138.07H102.925C102.686 138.07 102.435 138.154 102.435 138.452V140.14C102.435 140.405 102.686 140.559 102.925 140.559H105.239C106.017 140.559 106.65 140.15 106.65 139.315C106.65 138.479 106.017 138.07 105.239 138.07V138.07ZM93.4167 141.316C93.3645 141.22 92.5946 139.628 92.503 139.429C92.4178 139.252 92.2048 139.241 92.1271 139.436C92.0387 139.653 91.2795 141.179 91.2283 141.289C91.1432 141.47 91.239 141.588 91.4126 141.588H93.2281C93.3613 141.588 93.4933 141.47 93.4166 141.316L93.4167 141.316ZM157.1 129.375C157.1 129.157 156.883 129.105 156.669 129.105H156.375V129.64H156.596C156.865 129.64 157.1 129.625 157.1 129.375ZM157.1 130.708L156.555 129.938H156.371V130.708H156.046V128.807H156.76C157.207 128.807 157.409 128.984 157.409 129.375C157.409 129.754 157.199 129.901 156.924 129.931L157.475 130.708H157.1ZM156.661 128.497C155.927 128.497 155.383 129.047 155.383 129.805C155.383 130.564 155.927 131.109 156.661 131.109C157.398 131.109 157.94 130.564 157.94 129.805C157.94 129.047 157.398 128.497 156.661 128.497ZM92.4983 139.428C92.4131 139.251 92.2001 139.241 92.1224 139.436C92.034 139.653 91.2747 141.179 91.2237 141.288C91.1384 141.469 91.2343 141.588 91.4078 141.588H93.2235C93.3566 141.588 93.4886 141.469 93.4119 141.315C93.3597 141.219 92.5898 139.627 92.4983 139.428V139.428ZM90.6038 110.519C87.1674 110.519 85.0451 113.798 85.0451 119.232C85.0451 124.545 87.1333 127.761 90.6667 127.761C94.1041 127.761 96.2594 124.419 96.2594 119.173C96.2594 113.861 94.071 110.519 90.6038 110.519ZM105.234 138.069H102.92C102.681 138.069 102.431 138.153 102.431 138.452V140.139C102.431 140.405 102.681 140.559 102.92 140.559H105.234C106.012 140.559 106.645 140.15 106.645 139.314C106.645 138.478 106.012 138.069 105.234 138.069V138.069ZM111.114 110.519C107.677 110.519 105.551 113.798 105.551 119.232C105.551 124.545 107.644 127.761 111.176 127.761C114.61 127.761 116.766 124.419 116.766 119.173C116.766 113.861 114.581 110.519 111.114 110.519ZM136.752 119.07C136.752 113.563 134.542 110.328 130.824 110.328C130.824 110.328 130.113 110.376 129.764 110.431C128.414 110.649 128.013 111.014 128.013 112.675V125.779C128.013 127.566 129.126 127.672 130.695 127.761C134.527 127.978 136.752 124.575 136.752 119.071V119.07ZM158.323 103.907C158.198 104.481 157.84 104.692 157.21 104.692L156.411 104.695H144.146C143.092 104.695 142.735 104.485 142.735 103.789C142.735 103.329 143.092 102.949 143.512 102.949H144.146C144.363 102.949 144.581 102.757 144.647 102.547C144.743 102.293 144.769 102.138 144.769 101.295V87.31C144.769 86.4997 144.743 86.3368 144.647 86.0834C144.581 85.8065 144.33 85.619 144.146 85.619H143.512C143.092 85.619 142.709 85.2101 142.709 84.7459C142.709 84.0527 143.092 83.8279 144.146 83.8279H156.63C157.262 83.8279 157.615 84.0388 157.743 84.6128L158.186 86.7873C158.354 87.5901 158.071 88.0215 157.501 88.0215C157.199 88.0215 156.908 87.9437 156.697 87.5348C156.66 87.472 156.532 87.2441 156.388 86.8607C156.082 86.0568 155.452 85.9578 153.996 85.9578H151.05C149.344 85.9578 149.152 86.1824 149.152 87.8437V91.5579C149.152 92.2575 149.251 92.5631 149.439 92.6889C149.584 92.7879 149.815 92.8102 150.712 92.8102H152.165C153.478 92.8102 153.665 92.7144 153.761 92.0882L153.784 91.8966C153.879 91.3663 154.16 91.116 154.631 91.116C155.286 91.116 155.504 91.4877 155.504 92.5856V95.2126C155.504 96.3063 155.286 96.6821 154.631 96.6821C154.16 96.6821 153.879 96.3988 153.784 95.8686L153.751 95.662C153.658 95.0359 153.471 94.9432 152.155 94.9432H150.712C149.816 94.9432 149.584 94.9656 149.44 95.0646C149.251 95.1902 149.152 95.4927 149.152 96.1966V100.16C149.152 101.815 149.251 102.164 149.745 102.356C150.147 102.507 150.581 102.573 151.606 102.573L154.715 102.565C155.831 102.565 156.62 102.216 157.006 101.406C157.184 101.037 157.239 100.897 157.277 100.834C157.486 100.425 157.817 100.245 158.123 100.245C158.69 100.245 158.971 100.676 158.804 101.479L158.322 103.907L158.323 103.907ZM156.661 131.435C155.758 131.435 155.036 130.706 155.036 129.806C155.036 128.899 155.758 128.174 156.661 128.174C157.56 128.174 158.287 128.9 158.287 129.806C158.287 130.706 157.56 131.435 156.661 131.435ZM149.377 130.024C148.224 130.024 146.987 129.861 146.095 129.581C145.645 129.46 145.594 129.427 145.417 129.427C145.152 129.427 145.019 129.49 144.751 129.737C144.456 129.961 144.301 130.024 144.024 130.024C143.502 130.024 143.244 129.737 143.06 128.988L142.27 125.86C142.212 125.673 142.19 125.389 142.19 125.234C142.19 124.678 142.621 124.258 143.177 124.258C143.502 124.258 143.77 124.424 143.961 124.679L144.411 125.297C145.494 126.826 147.245 127.773 149.031 127.773C151.062 127.773 152.447 126.638 152.447 124.984C152.447 124.136 152.097 123.389 151.429 122.637C150.752 121.89 149.912 121.201 148.114 119.951C145.153 117.877 144.875 117.689 143.903 116.569C143.115 115.656 142.713 114.536 142.713 113.286C142.713 110.255 145.019 108.251 148.464 108.251C149.347 108.251 150.251 108.335 151.161 108.531C151.256 108.564 151.51 108.622 151.952 108.722C152.097 108.751 152.259 108.784 152.381 108.784C152.587 108.784 152.825 108.682 153.099 108.501C153.408 108.276 153.507 108.251 153.759 108.251C154.218 108.251 154.514 108.564 154.639 109.124L155.387 112.506C155.442 112.653 155.442 112.841 155.442 112.94C155.442 113.349 155.077 113.688 154.543 113.688C154.207 113.688 154.001 113.563 153.714 113.162C153.01 112.097 152.878 111.974 152.225 111.471C151.386 110.815 150.31 110.465 149.286 110.465C147.841 110.465 146.906 111.287 146.906 112.569C146.906 113.029 146.987 113.504 147.245 113.85C147.561 114.322 148.062 114.816 148.681 115.287C149.067 115.563 149.562 115.921 150.228 116.385C152.697 118.105 153.507 118.732 154.514 119.76C155.57 120.854 156.205 122.416 156.205 124.023C156.205 127.637 153.507 130.024 149.377 130.024V130.024ZM141.482 138.084H139.663C139.412 138.084 139.231 138.166 139.231 138.468L139.242 143.909C139.242 144.292 138.969 144.337 138.542 144.337C138.13 144.337 137.853 144.295 137.853 143.924V138.475C137.853 138.21 137.758 138.084 137.426 138.084H135.584C135.286 138.084 135.201 137.798 135.201 137.558C135.201 137.293 135.178 136.781 135.574 136.781H141.453C141.718 136.781 141.895 136.928 141.895 137.414C141.895 137.846 141.781 138.084 141.482 138.084V138.084ZM126.362 139.768H128.959C129.273 139.768 129.354 140.041 129.354 140.439C129.354 140.785 129.28 141.087 128.989 141.087H126.399C126.193 141.087 126.005 141.231 126.005 141.47V142.572C126.005 142.837 126.149 142.962 126.362 142.962H130.817C131.112 142.962 131.215 143.157 131.215 143.644C131.215 143.994 131.134 144.282 130.821 144.282H125.084C124.752 144.282 124.616 144.123 124.616 143.729V137.266C124.616 136.972 124.734 136.766 125.077 136.766H130.831C131.174 136.766 131.236 136.994 131.236 137.403C131.236 137.783 131.185 138.084 130.813 138.084H126.314C126.134 138.084 126.005 138.225 126.005 138.42V139.437C126.005 139.651 126.16 139.768 126.362 139.768H126.362ZM121.636 128.587C121.636 128.115 121.949 127.718 122.38 127.718H123.018C123.231 127.718 123.444 127.552 123.548 127.309C123.611 127.084 123.644 126.896 123.644 126.078V112.156C123.644 111.341 123.611 111.151 123.548 110.925C123.444 110.687 123.231 110.516 123.018 110.516H122.38C121.949 110.516 121.636 110.119 121.636 109.647C121.636 108.966 122.107 108.87 123.017 108.734C123.931 108.601 126.48 108.251 130.382 108.251C134.28 108.251 136.7 109.098 138.616 111.036C140.455 112.882 141.452 115.726 141.452 119.104C141.452 122.888 140.178 126.015 137.857 127.862C136.056 129.321 133.794 129.984 130.382 129.984C126.48 129.984 123.931 129.634 123.017 129.501C122.107 129.369 121.636 129.273 121.636 128.587V128.587ZM111.08 130.013C106.037 130.013 102.427 127.166 101.267 122.575C101.252 122.542 101.241 122.509 101.234 122.472C101.13 121.956 100.666 121.919 100.555 122.468C100.555 122.486 100.54 122.504 100.533 122.524C99.3616 127.18 95.7325 130.013 90.5708 130.013C84.385 130.013 80.3583 125.732 80.3583 119.203C80.3583 112.521 84.3558 108.269 90.6331 108.269C95.787 108.269 99.4535 111.143 100.576 115.829C100.695 116.366 101.151 116.326 101.25 115.815C101.25 115.807 101.25 115.8 101.261 115.796C102.407 111.109 106.014 108.269 111.145 108.269C117.394 108.269 121.453 112.487 121.453 119.049C121.453 125.732 117.423 130.013 111.082 130.013L111.08 130.013ZM119.74 144.341C119.107 144.341 118.933 144.242 118.771 144.046L116.366 141.478C116.038 141.194 115.71 141.15 115.26 141.15C115.009 141.15 114.814 141.408 114.814 141.706V143.895C114.814 144.311 114.458 144.337 114.067 144.337C113.654 144.337 113.436 144.223 113.436 143.892V137.212C113.436 136.818 113.683 136.752 114.17 136.752C114.553 136.752 114.814 136.84 114.814 137.201V139.217C114.814 139.54 114.962 139.699 115.165 139.699C115.75 139.699 115.876 139.573 116.093 139.386C116.336 139.179 118.804 136.913 118.804 136.913C119.114 136.648 119.427 136.653 119.725 136.939C119.973 137.175 120.082 137.441 119.806 137.713C119.615 137.901 117.449 139.861 117.449 139.861C117.179 140.093 117.246 140.31 117.431 140.513C117.431 140.513 120.031 143.379 120.304 143.674C120.712 144.119 120.337 144.341 119.74 144.341H119.74ZM106.521 141.916C106.58 142.006 107.633 143.534 107.788 143.763C108.02 144.109 107.81 144.337 107.092 144.337C106.691 144.337 106.422 144.268 106.248 144.009L105.081 142.196C104.948 141.994 104.756 141.865 104.494 141.865H102.825C102.623 141.865 102.431 142.031 102.431 142.234L102.442 144.043C102.442 144.399 101.75 144.341 101.522 144.341C101.223 144.341 101.058 144.256 101.058 143.922L101.068 137.042C101.068 136.862 101.223 136.755 101.389 136.755H105.346C106.874 136.755 108.024 137.739 108.024 139.316C108.024 140.679 107.04 141.125 106.646 141.459C106.451 141.63 106.403 141.747 106.521 141.916V141.916ZM95.3991 144.34C95.1701 144.34 94.824 144.303 94.7164 144.053L94.2309 143.048C94.168 142.915 94.0392 142.808 93.8806 142.808H90.7818C90.5869 142.808 90.4101 142.955 90.2994 143.232L89.8692 144.053C89.7734 144.292 89.3048 144.33 89.0875 144.33C88.8959 144.33 88.2665 144.307 88.4646 143.888L91.7551 137.061C91.8466 136.862 92.0202 136.711 92.3302 136.711C92.639 136.711 92.8083 136.814 92.9116 137.035C92.9116 137.035 96.054 143.733 96.1423 143.929C96.3052 144.278 95.6269 144.34 95.3991 144.34ZM83.4879 144.34C83.2962 144.34 82.9394 144.235 82.9394 143.983L82.4092 139.972C82.3751 139.805 82.3132 139.732 82.1802 139.732C82.0737 139.732 82.0183 139.783 81.9448 139.876L80.1431 142.182C80.0504 142.307 79.9291 142.385 79.7853 142.385C79.5798 142.385 79.4903 142.332 79.3732 142.16L77.7153 139.924C77.6418 139.831 77.5608 139.805 77.4757 139.805C77.3435 139.805 77.2765 139.924 77.2584 140.078L76.7388 143.957C76.6908 144.278 76.2969 144.34 75.972 144.34C75.7474 144.34 75.3651 144.235 75.3651 143.946L76.1275 137.407C76.2084 137.017 76.2926 136.792 76.8569 136.792C77.0007 136.792 77.2329 136.832 77.4128 137.112L79.4723 140.008C79.583 140.167 79.7087 140.3 79.845 140.295C79.9813 140.292 80.1208 140.152 80.239 139.997L82.4124 137.042C82.5455 136.84 82.7478 136.755 82.9874 136.755C83.2482 136.755 83.4399 136.814 83.5507 137.253L84.3132 143.957C84.3504 144.34 83.7498 144.34 83.4879 144.34ZM70.5314 126.146C70.5314 126.989 70.5314 127.141 70.6048 127.361C70.737 127.611 71.0212 127.774 71.2715 127.774H71.9786C72.4683 127.774 72.8081 128.176 72.8081 128.647C72.8081 129.336 72.4248 129.554 71.2714 129.554H65.5169C64.4488 129.554 64.073 129.336 64.073 128.647C64.073 128.176 64.4488 127.774 64.879 127.774H65.5169C65.7299 127.774 65.9406 127.611 66.0439 127.361C66.11 127.141 66.1431 126.989 66.1431 126.146V112.16C66.1431 111.349 66.1174 111.187 66.0173 110.937C65.9513 110.66 65.7011 110.469 65.5169 110.469H64.8833C64.4626 110.469 64.0803 110.064 64.0803 109.596C64.0803 108.907 64.4626 108.683 65.5169 108.683H79.0747C79.7041 108.683 80.062 108.893 80.1865 109.467L80.6295 111.641C80.7988 112.44 80.5145 112.875 79.9469 112.875C79.6413 112.875 79.3505 112.794 79.1408 112.385C79.1034 112.326 78.9789 112.094 78.8309 111.715C78.5253 110.912 77.8948 110.808 76.4403 110.808H72.4247C70.7156 110.808 70.5239 111.036 70.5239 112.694V116.412C70.5239 117.111 70.6229 117.414 70.8146 117.543C70.9583 117.643 71.1863 117.664 72.0861 117.664H74.6716C75.9835 117.664 76.1709 117.568 76.2668 116.942L76.2892 116.747C76.385 116.217 76.665 115.965 77.1325 115.965C77.7927 115.965 78.01 116.341 78.01 117.436V120.066C78.01 121.161 77.7927 121.536 77.1325 121.536C76.665 121.536 76.385 121.252 76.2892 120.722L76.2561 120.516C76.1635 119.89 75.976 119.794 74.6609 119.794H72.0861C71.1863 119.794 70.9583 119.816 70.8145 119.915C70.6229 120.044 70.5239 120.346 70.5239 121.05L70.5345 126.146L70.5314 126.146ZM60.2371 87.1155C59.7695 85.8302 59.6215 85.6759 58.6194 85.4586C57.9529 85.3362 57.7463 85.1189 57.7463 84.6142C57.7463 84.0839 58.0785 83.8038 58.7962 83.8038H65.2546C65.966 83.8038 66.2822 84.0839 66.2822 84.6472C66.2822 85.1743 65.9659 85.3883 65.1555 85.4586C64.4666 85.5203 64.1865 85.7419 64.1865 86.2391C64.1865 86.4532 64.212 86.6779 64.3005 86.9355L64.5475 87.6501C64.5475 87.6501 67.9998 97.4282 68.545 99.0008C68.6366 99.2521 68.9209 99.2404 69.0167 98.9603C69.6238 97.2182 71.2743 92.4252 71.3339 92.2303C71.5032 91.6777 71.5767 91.0952 71.3775 90.4573C71.3083 90.2327 70.2509 87.1158 70.2509 87.1158C70.1327 86.7772 70.0624 86.5269 69.9921 86.3981C69.8079 85.9412 69.5545 85.7751 68.8326 85.5834C68.1872 85.4248 67.9402 85.2118 67.9402 84.7476C67.9402 84.1469 68.3012 83.8041 69.0306 83.8041H75.1685C75.8799 83.8041 76.2259 84.0841 76.2259 84.6475C76.2259 85.1447 75.9096 85.3886 75.2132 85.4876C74.3804 85.5834 74.1558 85.7751 74.1558 86.3353C74.1558 86.6185 74.2186 86.8985 74.4763 87.6504C74.4763 87.6504 77.5048 97.2334 77.984 98.7404C78.0756 99.0236 78.345 98.9608 78.4216 98.7105C78.8933 97.1782 81.8889 87.1163 81.8889 87.1163C81.9772 86.8032 82.0102 86.5529 82.0102 86.3655C82.0102 85.8969 81.6748 85.6468 80.9156 85.5509C80.2266 85.488 79.9103 85.175 79.9103 84.6777C79.9103 84.0516 80.2682 83.8045 81.0998 83.8045H91.9393C92.9711 83.8045 93.313 84.0143 93.313 84.7C93.313 85.2122 92.9712 85.5838 92.5398 85.5838H91.9393C91.6816 85.5838 91.4377 85.7756 91.3419 85.9821C91.2833 86.2143 91.2579 86.4315 91.2579 87.2121V91.2468C91.2579 92.6909 91.3824 92.8122 92.5399 92.8122H96.7876C97.4095 92.8122 97.7311 92.7132 97.8888 92.5321C98.0324 92.3405 98.0324 92.219 98.0324 91.0584V87.212C98.0324 86.3985 98.0324 86.2143 97.9559 85.9821C97.8451 85.7425 97.598 85.5838 97.384 85.5838H96.7876C96.3159 85.5838 95.9368 85.2122 95.9368 84.7C95.9368 84.0142 96.3159 83.8045 97.384 83.8045H103.069C104.133 83.8045 104.513 84.0143 104.513 84.7C104.513 85.2122 104.133 85.5838 103.706 85.5838H103.069C102.855 85.5838 102.605 85.7755 102.538 85.9821C102.45 86.2142 102.428 86.4315 102.428 87.212V101.256C102.428 102.07 102.45 102.254 102.538 102.509C102.605 102.726 102.855 102.881 103.069 102.881H103.706C104.17 102.881 104.513 103.29 104.513 103.754C104.513 104.447 104.17 104.661 103.069 104.661H97.384C96.3159 104.661 95.9774 104.447 95.9774 103.754C95.9774 103.29 96.3565 102.881 96.7877 102.881H97.384C97.5981 102.881 97.8452 102.726 97.9559 102.509C98.0325 102.254 98.0325 102.07 98.0325 101.256V96.6913C98.0325 95.5306 98.0325 95.4092 97.8889 95.2217C97.7312 95.0376 97.4096 94.9375 96.7877 94.9375H92.54C91.3825 94.9375 91.258 95.0599 91.258 96.5039V101.256C91.258 102.07 91.2835 102.254 91.342 102.509C91.4378 102.726 91.6817 102.881 91.9394 102.881H92.5399C92.9713 102.881 93.2918 103.29 93.2918 103.791C93.2918 104.447 92.934 104.661 91.9394 104.661H86.2402C85.1902 104.661 84.81 104.447 84.81 103.754C84.81 103.29 85.1902 102.881 85.6204 102.881H86.2402C86.4605 102.881 86.7183 102.726 86.7779 102.509C86.8737 102.254 86.8737 102.092 86.8737 101.256V87.212C86.8737 85.6168 86.1251 85.5104 85.5767 85.5838C85.0241 85.6616 84.7003 86.0119 84.3606 87.1163L79.376 103.165C78.9267 104.694 78.5029 105.132 77.5679 105.132C76.6351 105.132 76.1602 104.727 75.7841 103.57C75.7841 103.57 73.2093 95.8708 73.1241 95.6163C73.0357 95.3618 72.7706 95.3544 72.6971 95.5982C72.6269 95.8441 69.856 103.57 69.856 103.57C69.5547 104.318 69.4769 104.536 69.2224 104.79C68.9765 104.974 68.5664 105.132 68.1576 105.132C67.2514 105.132 66.8063 104.756 66.375 103.57L60.2371 87.1162V87.1155ZM101.747 77.6475C102.792 73.764 106.568 69.8442 110.743 71.0421C114.283 72.0516 114.033 74.9769 116.608 75.8937C117.532 76.2216 117.459 77.1503 116.653 77.3046C115.293 77.5623 113.458 76.5751 112.087 75.3335C110.485 73.8788 107.88 73.9416 106.609 74.9096C106.053 75.3335 106.336 75.7391 106.845 75.6253C108.024 75.3707 110.021 75.3047 111.557 77.0287C113.067 78.723 115.882 80.2371 118.372 78.6122C119.058 78.1671 119.503 77.246 120.2 77.4451C120.944 77.6549 120.955 78.7379 119.979 79.9976C117.676 82.9675 115.315 82.6139 112.784 85.093C110.256 87.572 109.745 90.3907 109.745 93.9715C109.745 99.5237 111.929 102.887 115.621 102.887C119.213 102.887 121.467 99.3948 121.467 93.9059C121.467 89.3812 120.396 86.456 117.709 85.4242C116.409 84.9418 116.63 83.6714 118.306 83.4724C119.687 83.3104 121.04 83.7812 122.524 84.8758C125.085 86.7617 126.363 89.7605 126.363 93.7773C126.363 100.766 122.153 105.239 115.525 105.239C109.056 105.239 104.844 100.766 104.844 93.9392C104.844 89.5477 106.495 86.1656 109.35 84.2574C110.543 83.365 112.562 82.3373 114.541 81.6676C114.95 81.527 114.947 80.8008 114.22 80.9414C113.355 81.1149 111.763 81.2395 110.448 80.7092C107.497 79.5453 106.639 77.4635 103.165 78.9553C102.118 79.4047 101.444 78.7679 101.746 77.6476L101.747 77.6475ZM128.147 83.8292H133.924C135.05 83.8292 135.434 84.0539 135.434 84.7471C135.434 85.2444 135.05 85.6203 134.605 85.6203H133.924C133.636 85.6203 133.356 85.7747 133.268 86.0292C133.175 86.2389 133.175 86.4307 133.175 87.2452V100.378C133.175 101.753 133.235 102.073 133.603 102.286C133.924 102.508 134.402 102.566 135.658 102.566H137.42C138.536 102.566 139.325 102.217 139.711 101.407C139.888 101.034 139.943 100.898 139.98 100.835C140.19 100.426 140.522 100.242 140.824 100.242C141.395 100.242 141.675 100.677 141.509 101.48L141.026 103.908C140.901 104.482 140.544 104.693 139.914 104.693H128.147C127.105 104.693 126.762 104.487 126.762 103.79C126.762 103.33 127.105 102.95 127.542 102.95H128.147C128.354 102.95 128.607 102.758 128.67 102.548C128.763 102.316 128.792 102.165 128.792 101.385V87.2447C128.792 86.4004 128.763 86.2757 128.67 86.0287C128.607 85.7742 128.354 85.6197 128.147 85.6197H127.542C127.072 85.6197 126.692 85.2439 126.692 84.7466C126.692 84.0534 127.072 83.8286 128.147 83.8286L128.147 83.8292ZM108.629 43.5391C73.021 43.5391 44.1562 72.4047 44.1562 108.011C44.1562 143.619 73.0219 172.484 108.629 172.484C144.24 172.484 173.101 143.618 173.101 108.011C173.101 72.4039 144.239 43.5391 108.629 43.5391ZM157.097 129.376C157.097 129.159 156.88 129.107 156.666 129.107H156.372V129.641H156.593C156.862 129.641 157.097 129.626 157.097 129.376ZM157.097 130.709L156.552 129.94H156.368V130.709H156.043V128.809H156.758C157.204 128.809 157.406 128.985 157.406 129.376C157.406 129.755 157.197 129.902 156.921 129.932L157.472 130.709H157.097ZM156.658 128.499C155.924 128.499 155.38 129.048 155.38 129.806C155.38 130.566 155.924 131.111 156.658 131.111C157.395 131.111 157.937 130.566 157.937 129.806C157.937 129.048 157.395 128.499 156.658 128.499ZM93.4095 141.316C93.3574 141.22 92.5874 139.629 92.4959 139.429C92.4107 139.253 92.1977 139.242 92.12 139.437C92.0316 139.654 91.2723 141.18 91.2213 141.29C91.136 141.471 91.2318 141.589 91.4054 141.589H93.221C93.3541 141.589 93.4861 141.471 93.4095 141.317V141.316ZM105.232 138.071H102.918C102.679 138.071 102.428 138.155 102.428 138.453V140.141C102.428 140.406 102.679 140.56 102.918 140.56H105.232C106.009 140.56 106.643 140.152 106.643 139.316C106.643 138.48 106.009 138.071 105.232 138.071V138.071ZM90.6017 110.521C87.1652 110.521 85.043 113.799 85.043 119.234C85.043 124.546 87.1312 127.762 90.6645 127.762C94.1019 127.762 96.2572 124.421 96.2572 119.175C96.2572 113.862 94.0688 110.521 90.6017 110.521ZM111.112 110.521C107.675 110.521 105.548 113.799 105.548 119.234C105.548 124.546 107.642 127.762 111.174 127.762C114.608 127.762 116.763 124.421 116.763 119.175C116.763 113.862 114.578 110.521 111.112 110.521ZM130.821 110.329C130.821 110.329 130.11 110.377 129.761 110.432C128.411 110.649 128.01 111.015 128.01 112.676V125.78C128.01 127.567 129.123 127.673 130.693 127.761C134.524 127.979 136.75 124.575 136.75 119.071C136.75 113.564 134.539 110.329 130.821 110.329L130.821 110.329ZM157.093 129.377C157.093 129.159 156.876 129.107 156.662 129.107H156.368V129.642H156.589C156.858 129.642 157.093 129.627 157.093 129.377ZM157.093 130.71L156.548 129.94H156.363V130.71H156.039V128.809H156.753C157.2 128.809 157.402 128.986 157.402 129.377C157.402 129.756 157.192 129.903 156.917 129.933L157.468 130.71H157.093ZM156.654 128.499C155.92 128.499 155.375 129.049 155.375 129.807C155.375 130.566 155.92 131.111 156.654 131.111C157.391 131.111 157.933 130.566 157.933 129.807C157.933 129.049 157.391 128.499 156.654 128.499ZM130.817 110.329C130.817 110.329 130.106 110.377 129.757 110.432C128.407 110.65 128.006 111.015 128.006 112.676V125.78C128.006 127.567 129.119 127.673 130.688 127.762C134.52 127.979 136.745 124.576 136.745 119.072C136.745 113.564 134.535 110.329 130.817 110.329V110.329ZM111.108 110.521C107.67 110.521 105.544 113.8 105.544 119.234C105.544 124.547 107.637 127.763 111.17 127.763C114.604 127.763 116.759 124.421 116.759 119.175C116.759 113.863 114.574 110.521 111.108 110.521ZM105.228 138.071H102.914C102.674 138.071 102.424 138.155 102.424 138.454V140.141C102.424 140.407 102.674 140.561 102.914 140.561H105.228C106.005 140.561 106.639 140.152 106.639 139.316C106.639 138.48 106.005 138.071 105.228 138.071V138.071ZM90.5971 110.521C87.1607 110.521 85.0385 113.8 85.0385 119.234C85.0385 124.547 87.1266 127.763 90.66 127.763C94.0974 127.763 96.2527 124.421 96.2527 119.175C96.2527 113.863 94.0643 110.521 90.5971 110.521ZM93.4051 141.317C93.353 141.221 92.583 139.629 92.4915 139.43C92.4063 139.253 92.1933 139.243 92.1156 139.438C92.0272 139.655 91.2679 141.181 91.2169 141.291C91.1316 141.472 91.2274 141.59 91.401 141.59H93.2166C93.3497 141.59 93.4817 141.472 93.4051 141.317C93.353 141.221 92.583 139.629 92.4914 139.43C92.4062 139.254 92.1932 139.243 92.1156 139.438C92.0271 139.655 91.2679 141.181 91.2168 141.291C91.1316 141.472 91.2274 141.59 91.401 141.59H93.2166C93.3497 141.59 93.4817 141.472 93.405 141.318L93.4051 141.317ZM105.228 138.072H102.914C102.674 138.072 102.424 138.156 102.424 138.454V140.142C102.424 140.407 102.674 140.561 102.914 140.561H105.228C106.005 140.561 106.639 140.152 106.639 139.317C106.639 138.481 106.005 138.072 105.228 138.072ZM90.5972 110.521C87.1608 110.521 85.0386 113.799 85.0386 119.234C85.0386 124.546 87.1267 127.762 90.6601 127.762C94.0974 127.762 96.2528 124.421 96.2528 119.175C96.2528 113.862 94.0644 110.521 90.5972 110.521ZM111.107 110.521C107.67 110.521 105.544 113.799 105.544 119.234C105.544 124.546 107.637 127.762 111.169 127.762C114.603 127.762 116.759 124.421 116.759 119.175C116.759 113.862 114.574 110.521 111.107 110.521ZM130.817 110.329C130.817 110.329 130.106 110.377 129.756 110.432C128.407 110.649 128.006 111.015 128.006 112.676V125.78C128.006 127.567 129.118 127.673 130.688 127.762C134.52 127.979 136.745 124.575 136.745 119.071C136.745 113.564 134.534 110.329 130.817 110.329C130.817 110.329 130.106 110.377 129.756 110.433C128.407 110.65 128.006 111.015 128.006 112.676V125.78C128.006 127.567 129.119 127.673 130.688 127.762C134.52 127.979 136.745 124.576 136.745 119.072C136.745 113.564 134.535 110.329 130.817 110.329L130.817 110.329ZM111.108 110.521C107.67 110.521 105.544 113.8 105.544 119.234C105.544 124.547 107.637 127.763 111.17 127.763C114.604 127.763 116.759 124.421 116.759 119.175C116.759 113.863 114.574 110.521 111.108 110.521ZM105.227 138.071H102.914C102.674 138.071 102.424 138.155 102.424 138.454V140.142C102.424 140.407 102.674 140.561 102.914 140.561H105.227C106.005 140.561 106.638 140.152 106.638 139.316C106.638 138.48 106.005 138.071 105.227 138.071ZM90.597 110.521C87.1605 110.521 85.0384 113.8 85.0384 119.234C85.0384 124.547 87.1265 127.763 90.6598 127.763C94.0972 127.763 96.2525 124.421 96.2525 119.175C96.2525 113.863 94.0641 110.521 90.597 110.521ZM93.4049 141.317C93.3528 141.221 92.5829 139.629 92.4913 139.43C92.4061 139.253 92.1931 139.243 92.1154 139.438C92.027 139.655 91.2677 141.181 91.2167 141.291C91.1314 141.472 91.2273 141.59 91.4008 141.59H93.2165C93.3495 141.59 93.4816 141.472 93.4049 141.317C93.3528 141.222 92.5828 139.63 92.4913 139.43C92.406 139.254 92.1931 139.243 92.1154 139.438C92.0269 139.655 91.2677 141.181 91.2166 141.291C91.1314 141.472 91.2272 141.59 91.4008 141.59H93.2164C93.3495 141.59 93.4815 141.472 93.4048 141.318L93.4049 141.317ZM105.228 138.072H102.914C102.674 138.072 102.424 138.156 102.424 138.454V140.142C102.424 140.407 102.674 140.561 102.914 140.561H105.228C106.005 140.561 106.638 140.153 106.638 139.317C106.638 138.481 106.005 138.072 105.228 138.072ZM90.5971 110.521C87.1606 110.521 85.0384 113.799 85.0384 119.234C85.0384 124.547 87.1266 127.762 90.6599 127.762C94.0973 127.762 96.2526 124.421 96.2526 119.175C96.2526 113.863 94.0642 110.521 90.5971 110.521ZM111.107 110.521C107.67 110.521 105.543 113.799 105.543 119.234C105.543 124.547 107.637 127.762 111.169 127.762C114.603 127.762 116.759 124.421 116.759 119.175C116.759 113.863 114.573 110.521 111.107 110.521ZM130.817 110.329C130.817 110.329 130.105 110.377 129.756 110.432C128.407 110.65 128.005 111.015 128.005 112.676V125.78C128.005 127.567 129.118 127.673 130.688 127.762C134.519 127.979 136.745 124.576 136.745 119.071C136.745 113.564 134.534 110.329 130.817 110.329C130.817 110.329 130.105 110.377 129.756 110.433C128.407 110.65 128.006 111.015 128.006 112.676V125.78C128.006 127.567 129.118 127.674 130.688 127.762C134.519 127.979 136.745 124.576 136.745 119.072C136.745 113.564 134.534 110.33 130.817 110.33L130.817 110.329ZM111.107 110.521C107.67 110.521 105.544 113.8 105.544 119.234C105.544 124.547 107.637 127.763 111.169 127.763C114.603 127.763 116.759 124.421 116.759 119.176C116.759 113.863 114.574 110.521 111.107 110.521ZM105.227 138.071H102.913C102.674 138.071 102.423 138.156 102.423 138.454V140.142C102.423 140.407 102.674 140.561 102.913 140.561H105.227C106.005 140.561 106.638 140.152 106.638 139.316C106.638 138.48 106.005 138.071 105.227 138.071ZM90.5968 110.521C87.1604 110.521 85.0382 113.8 85.0382 119.234C85.0382 124.547 87.1263 127.763 90.6597 127.763C94.097 127.763 96.2523 124.421 96.2523 119.176C96.2523 113.863 94.064 110.521 90.5968 110.521ZM93.4048 141.317C93.3527 141.221 92.5827 139.629 92.4911 139.43C92.4059 139.254 92.1929 139.243 92.1153 139.438C92.0268 139.655 91.2676 141.181 91.2165 141.291C91.1313 141.472 91.2271 141.59 91.4007 141.59H93.2163C93.3494 141.59 93.4814 141.472 93.4047 141.318L93.4048 141.317ZM90.5968 110.521C87.1603 110.521 85.0381 113.8 85.0381 119.235C85.0381 124.547 87.1263 127.763 90.6596 127.763C94.097 127.763 96.2523 124.421 96.2523 119.176C96.2523 113.863 94.0639 110.521 90.5968 110.521ZM111.107 110.521C107.67 110.521 105.543 113.8 105.543 119.235C105.543 124.547 107.637 127.763 111.169 127.763C114.603 127.763 116.758 124.421 116.758 119.176C116.758 113.863 114.573 110.521 111.107 110.521ZM130.816 110.33C130.816 110.33 130.105 110.378 129.756 110.433C128.407 110.65 128.005 111.016 128.005 112.677V125.781C128.005 127.568 129.118 127.674 130.688 127.762C134.519 127.98 136.745 124.576 136.745 119.072C136.745 113.565 134.534 110.33 130.817 110.33C130.817 110.33 130.105 110.378 129.756 110.433C128.407 110.65 128.005 111.016 128.005 112.677V125.781C128.005 127.568 129.118 127.674 130.688 127.763C134.519 127.98 136.745 124.576 136.745 119.072C136.745 113.565 134.534 110.33 130.817 110.33L130.816 110.33ZM111.107 110.522C107.67 110.522 105.543 113.801 105.543 119.235C105.543 124.548 107.637 127.763 111.169 127.763C114.603 127.763 116.758 124.422 116.758 119.176C116.758 113.864 114.573 110.522 111.107 110.522ZM90.5969 110.522C87.1605 110.522 85.0383 113.801 85.0383 119.235C85.0383 124.548 87.1264 127.763 90.6598 127.763C94.0971 127.763 96.2525 124.422 96.2525 119.176C96.2525 113.864 94.0641 110.522 90.5969 110.522C87.1605 110.522 85.0383 113.801 85.0383 119.235C85.0383 124.548 87.1264 127.763 90.6598 127.763C94.0971 127.763 96.2525 124.422 96.2525 119.176C96.2525 113.864 94.0641 110.522 90.5969 110.522ZM111.107 110.522C107.67 110.522 105.543 113.801 105.543 119.235C105.543 124.548 107.637 127.763 111.169 127.763C114.603 127.763 116.758 124.422 116.758 119.176C116.758 113.864 114.573 110.522 111.107 110.522ZM130.817 110.33C130.817 110.33 130.105 110.378 129.756 110.433C128.407 110.651 128.005 111.016 128.005 112.677V125.781C128.005 127.568 129.118 127.674 130.688 127.763C134.519 127.98 136.745 124.577 136.745 119.072C136.745 113.565 134.534 110.33 130.817 110.33C130.817 110.33 130.105 110.378 129.756 110.434C128.407 110.651 128.005 111.016 128.005 112.677V125.781C128.005 127.568 129.118 127.675 130.688 127.763C134.519 127.98 136.745 124.577 136.745 119.073C136.745 113.565 134.534 110.331 130.817 110.331L130.817 110.33ZM111.107 110.522C107.67 110.522 105.543 113.801 105.543 119.235C105.543 124.548 107.637 127.764 111.169 127.764C114.603 127.764 116.759 124.422 116.759 119.177C116.759 113.864 114.574 110.522 111.107 110.522ZM90.5971 110.522C87.1607 110.522 85.0385 113.801 85.0385 119.235C85.0385 124.548 87.1266 127.764 90.66 127.764C94.0973 127.764 96.2526 124.422 96.2526 119.177C96.2526 113.864 94.0643 110.522 90.5971 110.522Z" fill="#006F46"/>
</g>
<defs>
<clipPath id="clip0_3044_757">
<rect width="129.625" height="129.625" fill="white" transform="translate(44.1562 43.5352)"/>
</clipPath>
</defs>
</svg>
