<svg width="217" height="217" viewBox="0 0 217 217" fill="none" xmlns="http://www.w3.org/2000/svg">
<rect x="0.03125" y="0.560547" width="216" height="216" rx="36.6897" fill="white" fill-opacity="0.930588"/>
<g opacity="0.930588" clip-path="url(#clip0_3044_785)">
<path d="M169.948 75.5792C165.895 75.5792 163.021 78.7499 163.021 83.6171V101.471H156.835V70.0452H162.946V73.8827C163.701 72.6108 164.781 71.5637 166.075 70.8498C167.37 70.136 168.833 69.7814 170.31 69.823H172.532V75.5792H169.948ZM152.56 85.758C152.56 76.3866 145.892 69.3784 136.869 69.3784C134.737 69.393 132.629 69.8288 130.667 70.6611C128.704 71.4932 126.925 72.7053 125.432 74.2277C123.939 75.7499 122.762 77.5524 121.969 79.5312C121.175 81.51 120.781 83.6262 120.808 85.758C120.808 95.1221 128.031 102.204 137.455 102.204C140.087 102.254 142.692 101.67 145.052 100.502C147.411 99.3341 149.455 97.6159 151.011 95.4924L146.523 92.2032C145.492 93.6407 144.129 94.8074 142.551 95.6034C140.972 96.3994 139.223 96.8011 137.455 96.7742C134.936 96.7622 132.506 95.8485 130.603 94.1986C128.7 92.5487 127.452 90.2718 127.083 87.7805H152.575L152.56 85.758ZM127.217 82.8762C128.32 78.0831 132.15 74.8383 136.795 74.8383C141.44 74.8383 145.263 78.0831 146.3 82.8762H127.217ZM101.214 69.3784C99.1464 69.3802 97.0999 69.7916 95.1926 70.5888C93.2853 71.3861 91.5548 72.5535 90.1013 74.0234V58.3105H83.9154V101.471H90.0272V97.4853C92.988 100.481 97.0168 102.178 101.228 102.204C103.413 102.251 105.585 101.861 107.617 101.057C109.649 100.253 111.5 99.0511 113.062 97.5224C114.623 95.9937 115.864 94.1687 116.711 92.1543C117.558 90.1398 117.994 87.9766 117.994 85.7914C117.994 83.6062 117.558 81.4429 116.711 79.4286C115.864 77.4142 114.623 75.5891 113.062 74.0604C111.5 72.5318 109.649 71.3302 107.617 70.5262C105.585 69.7223 103.413 69.332 101.228 69.3784H101.214ZM100.769 96.6778C98.613 96.6881 96.5024 96.0576 94.7051 94.8664C92.9079 93.6752 91.5049 91.977 90.6744 89.9872C89.8438 87.9974 89.6231 85.8057 90.0401 83.6903C90.4572 81.5748 91.4933 79.6309 93.0168 78.1053C94.5405 76.5796 96.4829 75.5408 98.5978 75.1209C100.713 74.701 102.905 74.9188 104.896 75.7465C106.886 76.5744 108.587 77.975 109.78 79.7706C110.974 81.5662 111.607 83.676 111.6 85.8321C111.602 87.2544 111.323 88.6629 110.779 89.977C110.235 91.2911 109.437 92.4849 108.431 93.4899C107.425 94.4948 106.23 95.2911 104.915 95.8331C103.6 96.3751 102.191 96.652 100.769 96.6482V96.6778ZM61.135 96.3814C67.1061 96.3814 71.7437 91.8032 71.7437 84.9431V58.3105H78.1517V101.471H71.8177V97.389C70.3379 98.9185 68.5632 100.132 66.6009 100.956C64.6387 101.78 62.5297 102.197 60.4017 102.182C51.1932 102.182 44.1035 95.4703 44.1035 85.2913V58.3105H50.6302V84.9802C50.6302 91.8773 55.0752 96.3814 61.135 96.3814Z" fill="#262626"/>
<path d="M43.2227 114.428H73.5001V121.836H51.4013V132.356H72.8852V139.512H51.4013V150.209H73.5001V157.618H43.2227V114.428ZM157.117 158.396C166.399 158.396 171.63 153.95 171.63 147.846C171.63 143.498 168.533 140.253 162.051 138.845L155.198 137.445C151.22 136.704 149.968 135.963 149.968 134.482C149.968 132.563 151.887 131.385 155.42 131.385C159.25 131.385 162.088 132.415 162.829 135.956H170.86C170.422 129.289 165.629 124.888 155.909 124.888C147.509 124.888 141.611 128.355 141.611 135.074C141.611 139.719 144.856 142.742 151.857 144.216L159.517 145.987C162.54 146.579 163.347 147.394 163.347 148.646C163.347 150.639 161.066 151.891 157.377 151.891C152.739 151.891 150.086 150.861 149.057 147.32H140.982C142.16 153.973 147.094 158.396 157.117 158.396ZM138.648 157.588H129.958C124.506 157.588 121.483 154.196 121.483 149.913V132.948H115.372V125.718H121.513V116.643H129.588V125.718H138.648V132.948H129.588V147.846C129.588 149.543 130.766 150.358 132.61 150.358H138.648V157.588ZM103.829 125.733V128.607C100.986 126.204 97.3807 124.891 93.658 124.903C91.4291 124.856 89.2134 125.255 87.1406 126.075C85.0679 126.896 83.1797 128.122 81.5868 129.681C79.994 131.241 78.7286 133.103 77.8646 135.158C77.0007 137.213 76.5557 139.42 76.5557 141.649C76.5557 143.879 77.0007 146.085 77.8646 148.141C78.7286 150.196 79.994 152.058 81.5868 153.617C83.1797 155.177 85.0679 156.403 87.1406 157.224C89.2134 158.044 91.4291 158.443 93.658 158.396C97.3814 158.412 100.988 157.098 103.829 154.692V157.573H111.882V125.718L103.829 125.733ZM94.3247 151.402C92.393 151.424 90.4984 150.872 88.8817 149.814C87.2649 148.757 85.999 147.243 85.2448 145.464C84.4907 143.686 84.2823 141.723 84.646 139.826C85.0099 137.929 85.9296 136.183 87.2882 134.81C88.6469 133.436 90.3832 132.498 92.2763 132.114C94.1695 131.73 96.1341 131.917 97.9206 132.652C99.707 133.387 101.235 134.637 102.309 136.242C103.384 137.848 103.957 139.736 103.955 141.668C103.967 142.941 103.726 144.204 103.247 145.384C102.767 146.564 102.058 147.637 101.161 148.541C100.264 149.444 99.1966 150.162 98.0206 150.65C96.8446 151.139 95.5833 151.389 94.3098 151.387L94.3247 151.402Z" fill="#5FB709"/>
</g>
<defs>
<clipPath id="clip0_3044_785">
<rect width="129.617" height="100.5" fill="white" transform="translate(43.2227 58.3105)"/>
</clipPath>
</defs>
</svg>
