<svg width="109" height="114" viewBox="0 0 109 114" fill="none" xmlns="http://www.w3.org/2000/svg">
<path d="M91.6971 7.25586L17.1705 7.25586C11.5578 7.25586 7.00781 12.0078 7.00781 17.8695L7.00781 67.4001C7.00781 73.2619 11.5578 78.0138 17.1705 78.0138L91.6971 78.0138C97.3099 78.0138 101.86 73.2619 101.86 67.4001V17.8695C101.86 12.0078 97.3099 7.25586 91.6971 7.25586Z" fill="#1565C0"/>
<path d="M47.9641 39.6283C49.4151 38.1566 50.4127 36.2662 50.8291 34.199C51.2455 32.1318 51.0617 29.9819 50.3014 28.0244C49.5411 26.0669 48.2387 24.3908 46.5611 23.2108C44.8834 22.0307 42.9067 21.4004 40.884 21.4004C38.8613 21.4004 36.8847 22.0307 35.207 23.2108C33.5293 24.3908 32.227 26.0669 31.4667 28.0244C30.7063 29.9819 30.5226 32.1318 30.939 34.199C31.3554 36.2662 32.3529 38.1566 33.804 39.6283C26.2497 41.751 20.5586 50.2066 20.5586 60.325C20.5586 61.2633 20.9155 62.1632 21.5508 62.8266C22.1861 63.4901 23.0477 63.8629 23.9462 63.8629C24.8446 63.8629 25.7062 63.4901 26.3415 62.8266C26.9768 62.1632 27.3337 61.2633 27.3337 60.325C27.3337 52.5062 31.907 46.1734 37.4965 46.1734H44.2716C49.8611 46.1734 54.4343 52.5062 54.4343 60.325C54.4343 61.2633 54.7912 62.1632 55.4265 62.8266C56.0618 63.4901 56.9235 63.8629 57.8219 63.8629C58.7203 63.8629 59.582 63.4901 60.2173 62.8266C60.8526 62.1632 61.2095 61.2633 61.2095 60.325C61.2095 50.2066 55.5183 41.751 47.9641 39.6283ZM40.884 28.4839C41.554 28.4839 42.209 28.6914 42.7661 29.0802C43.3232 29.4689 43.7573 30.0214 44.0137 30.6679C44.2701 31.3144 44.3372 32.0257 44.2065 32.712C44.0758 33.3983 43.7532 34.0287 43.2794 34.5235C42.8056 35.0183 42.202 35.3552 41.5449 35.4917C40.8878 35.6282 40.2067 35.5582 39.5877 35.2904C38.9687 35.0226 38.4396 34.5692 38.0674 33.9874C37.6951 33.4056 37.4965 32.7215 37.4965 32.0218C37.4965 31.0835 37.8534 30.1836 38.4887 29.5201C39.1239 28.8567 39.9856 28.4839 40.884 28.4839Z" fill="#E64A19"/>
<path d="M84.9233 28.484L74.7606 28.484C73.8622 28.484 73.0005 28.1113 72.3652 27.4478C71.7299 26.7843 71.373 25.8844 71.373 24.9461C71.373 24.0078 71.7299 23.1079 72.3652 22.4444C73.0005 21.7809 73.8622 21.4082 74.7606 21.4082L84.9233 21.4082C85.8218 21.4082 86.6834 21.7809 87.3187 22.4444C87.954 23.1079 88.3109 24.0078 88.3109 24.9461C88.3109 25.8844 87.954 26.7843 87.3187 27.4478C86.6834 28.1113 85.8218 28.484 84.9233 28.484Z" fill="#E0E0E0"/>
<path d="M84.922 42.6344L64.5966 42.6344C63.6981 42.6344 62.8365 42.2616 62.2012 41.5982C61.5659 40.9347 61.209 40.0348 61.209 39.0965C61.209 38.1582 61.5659 37.2583 62.2012 36.5948C62.8365 35.9313 63.6981 35.5586 64.5966 35.5586L84.922 35.5586C85.8204 35.5586 86.6821 35.9313 87.3174 36.5948C87.9527 37.2583 88.3096 38.1582 88.3096 39.0965C88.3096 40.0348 87.9527 40.9347 87.3174 41.5982C86.6821 42.2616 85.8204 42.6344 84.922 42.6344Z" fill="#E0E0E0"/>
<path d="M84.9233 56.7867H74.7606C73.8622 56.7867 73.0005 56.414 72.3652 55.7505C71.7299 55.087 71.373 54.1871 71.373 53.2488C71.373 52.3105 71.7299 51.4106 72.3652 50.7472C73.0005 50.0837 73.8622 49.7109 74.7606 49.7109H84.9233C85.8218 49.7109 86.6834 50.0837 87.3187 50.7472C87.954 51.4106 88.3109 52.3105 88.3109 53.2488C88.3109 54.1871 87.954 55.087 87.3187 55.7505C86.6834 56.414 85.8218 56.7867 84.9233 56.7867Z" fill="#E0E0E0"/>
<path d="M91.6971 85.0898L17.1705 85.0898C14.4752 85.0898 11.8903 86.2081 9.9844 88.1985C8.07852 90.189 7.00781 92.8886 7.00781 95.7035C7.00781 98.5185 8.07852 101.218 9.9844 103.209C11.8903 105.199 14.4752 106.317 17.1705 106.317L91.6971 106.317C94.3925 106.317 96.9774 105.199 98.8833 103.209C100.789 101.218 101.86 98.5185 101.86 95.7035C101.86 92.8886 100.789 90.189 98.8833 88.1985C96.9774 86.2081 94.3925 85.0898 91.6971 85.0898Z" fill="#37474F"/>
<path d="M17.1705 7.25586C14.4752 7.25586 11.8903 8.37408 9.9844 10.3645C8.07852 12.355 7.00781 15.0546 7.00781 17.8695L7.00781 67.4001C7.00781 70.215 8.07852 72.9146 9.9844 74.9051C11.8903 76.8956 14.4752 78.0138 17.1705 78.0138H54.4338V7.25586L17.1705 7.25586Z" fill="#1E88E5"/>
<path d="M47.9641 39.6283C49.4151 38.1566 50.4127 36.2662 50.8291 34.199C51.2455 32.1318 51.0617 29.9819 50.3014 28.0244C49.5411 26.0669 48.2387 24.3908 46.5611 23.2108C44.8834 22.0307 42.9067 21.4004 40.884 21.4004C38.8613 21.4004 36.8847 22.0307 35.207 23.2108C33.5293 24.3908 32.227 26.0669 31.4667 28.0244C30.7063 29.9819 30.5226 32.1318 30.939 34.199C31.3554 36.2662 32.3529 38.1566 33.804 39.6283C26.2497 41.751 20.5586 50.2066 20.5586 60.325C20.5586 61.2633 20.9155 62.1632 21.5508 62.8266C22.1861 63.4901 23.0477 63.8629 23.9462 63.8629C24.8446 63.8629 25.7062 63.4901 26.3415 62.8266C26.9768 62.1632 27.3337 61.2633 27.3337 60.325C27.3337 52.5062 31.907 46.1734 37.4965 46.1734H44.2716C49.8611 46.1734 54.4343 52.5062 54.4343 60.325V43.4492C52.6027 41.6514 50.3833 40.3408 47.9641 39.6283ZM40.884 35.5597C40.214 35.5597 39.5591 35.3522 39.002 34.9635C38.4449 34.5747 38.0107 34.0222 37.7543 33.3757C37.4979 32.7292 37.4308 32.0179 37.5615 31.3316C37.6923 30.6453 38.0149 30.0149 38.4887 29.5201C38.9624 29.0254 39.566 28.6884 40.2231 28.5519C40.8803 28.4154 41.5614 28.4854 42.1804 28.7532C42.7994 29.021 43.3285 29.4745 43.7007 30.0563C44.0729 30.6381 44.2716 31.3221 44.2716 32.0218C44.2716 32.9601 43.9147 33.86 43.2794 34.5235C42.6441 35.187 41.7825 35.5597 40.884 35.5597Z" fill="#FF7043"/>
<path d="M17.1705 85.0898C14.4752 85.0898 11.8903 86.2081 9.9844 88.1985C8.07852 90.189 7.00781 92.8886 7.00781 95.7035C7.00781 98.5185 8.07852 101.218 9.9844 103.209C11.8903 105.199 14.4752 106.317 17.1705 106.317L54.4338 106.317V85.0898L17.1705 85.0898Z" fill="#455A64"/>
<path d="M91.6971 7.25586L17.1705 7.25586C14.4752 7.25586 11.8903 8.37408 9.9844 10.3645C8.07852 12.355 7.00781 15.0546 7.00781 17.8695L7.00781 67.4001C7.00781 70.215 8.07852 72.9146 9.9844 74.9051C11.8903 76.8956 14.4752 78.0138 17.1705 78.0138L91.6971 78.0138C94.3925 78.0138 96.9774 76.8956 98.8833 74.9051C100.789 72.9146 101.86 70.215 101.86 67.4001V17.8695C101.86 15.0546 100.789 12.355 98.8833 10.3645C96.9774 8.37408 94.3925 7.25586 91.6971 7.25586ZM95.0847 67.4001C95.0847 68.3384 94.7278 69.2383 94.0925 69.9018C93.4572 70.5652 92.5956 70.938 91.6971 70.938H17.1705C16.2721 70.938 15.4104 70.5652 14.7752 69.9018C14.1399 69.2383 13.783 68.3384 13.783 67.4001L13.783 17.8695C13.783 16.9312 14.1399 16.0314 14.7752 15.3679C15.4104 14.7044 16.2721 14.3317 17.1705 14.3317L91.6971 14.3317C92.5956 14.3317 93.4572 14.7044 94.0925 15.3679C94.7278 16.0314 95.0847 16.9312 95.0847 17.8695V67.4001Z" fill="#263238"/>
<path d="M91.6971 85.0898L17.1705 85.0898C14.4752 85.0898 11.8903 86.2081 9.9844 88.1985C8.07852 90.189 7.00781 92.8886 7.00781 95.7035C7.00781 98.5185 8.07852 101.218 9.9844 103.209C11.8903 105.199 14.4752 106.317 17.1705 106.317L91.6971 106.317C94.3925 106.317 96.9774 105.199 98.8833 103.209C100.789 101.218 101.86 98.5185 101.86 95.7035C101.86 92.8886 100.789 90.189 98.8833 88.1985C96.9774 86.2081 94.3925 85.0898 91.6971 85.0898ZM91.6971 99.2414L17.1705 99.2414C16.2721 99.2414 15.4104 98.8687 14.7752 98.2052C14.1399 97.5417 13.783 96.6418 13.783 95.7035C13.783 94.7652 14.1399 93.8653 14.7752 93.2019C15.4104 92.5384 16.2721 92.1656 17.1705 92.1656L91.6971 92.1656C92.5956 92.1656 93.4572 92.5384 94.0925 93.2019C94.7278 93.8653 95.0847 94.7652 95.0847 95.7035C95.0847 96.6418 94.7278 97.5417 94.0925 98.2052C93.4572 98.8687 92.5956 99.2414 91.6971 99.2414Z" fill="#263238"/>
</svg>
