<svg width="104" height="104" viewBox="0 0 104 104" fill="none" xmlns="http://www.w3.org/2000/svg">
<path d="M13.5293 52.2739C13.5293 57.3308 14.5253 62.3383 16.4606 67.0103C18.3958 71.6824 21.2323 75.9275 24.8081 79.5033C28.3839 83.0791 32.629 85.9156 37.3011 87.8508C41.9731 89.7861 46.9806 90.7821 52.0375 90.7821C57.0945 90.7821 62.102 89.7861 66.774 87.8508C71.446 85.9156 75.6911 83.0791 79.267 79.5033C82.8428 75.9275 85.6793 71.6824 87.6145 67.0103C89.5497 62.3383 90.5458 57.3308 90.5458 52.2739C90.5458 47.2169 89.5497 42.2094 87.6145 37.5374C85.6793 32.8654 82.8428 28.6202 79.267 25.0444C75.6911 21.4686 71.446 18.6321 66.774 16.6969C62.102 14.7617 57.0945 13.7656 52.0375 13.7656C46.9806 13.7656 41.9731 14.7617 37.3011 16.6969C32.629 18.6321 28.3839 21.4686 24.8081 25.0444C21.2323 28.6202 18.3958 32.8654 16.4606 37.5374C14.5253 42.2094 13.5293 47.2169 13.5293 52.2739Z" stroke="white" stroke-width="5.55074" stroke-linecap="round" stroke-linejoin="round"/>
<path d="M39.2012 16.332C60.5946 42.0042 69.152 61.2583 71.2914 85.6469" stroke="white" stroke-width="5.55074" stroke-linecap="round" stroke-linejoin="round"/>
<path d="M28.0762 82.2241C43.0516 67.2487 53.7483 54.4126 90.1172 54.8405" stroke="white" stroke-width="5.55074" stroke-linecap="round" stroke-linejoin="round"/>
<path d="M13.957 46.9247C35.3505 46.9247 55.9481 45.2988 79.4809 25.5312" stroke="white" stroke-width="5.55074" stroke-linecap="round" stroke-linejoin="round"/>
</svg>
