<svg width="18" height="18" viewBox="0 0 18 18" fill="none" xmlns="http://www.w3.org/2000/svg">
<path d="M1.22217 0L6.40739 5.18522V2.08637H8.1358V8.1358H2.08637V6.40739H5.18522L0 1.22217L1.22217 0Z" fill="#7C5900"/>
<path d="M18 1.22217L12.8148 6.40739L15.9136 6.40739V8.1358L9.8642 8.1358V2.08637H11.5926V5.18522L16.7778 0L18 1.22217Z" fill="#7C5900"/>
<path d="M2.08637 9.8642H8.1358V15.9136H6.40739V12.8148L1.22217 18L0 16.7778L5.18522 11.5926H2.08637V9.8642Z" fill="#7C5900"/>
<path d="M9.8642 9.8642H15.9136V11.5926H12.8148L18 16.7778L16.7778 18L11.5926 12.8148V15.9136H9.8642V9.8642Z" fill="#7C5900"/>
</svg>
