<svg width="21" height="18" viewBox="0 0 21 18" fill="none" xmlns="http://www.w3.org/2000/svg">
<path fill-rule="evenodd" clip-rule="evenodd" d="M7.28943 11.7C6.29531 11.7 5.48943 10.8941 5.48943 9.9C5.48943 8.90589 6.29531 8.1 7.28943 8.1C7.44812 8.1 7.60202 8.12054 7.74861 8.1591L10.0438 5.86389C10.0026 5.71274 9.98064 5.55366 9.98064 5.38945C9.98064 4.39534 10.7865 3.58945 11.7806 3.58945C12.7748 3.58945 13.5806 4.39534 13.5806 5.38945C13.5806 5.877 13.3868 6.31928 13.072 6.64342L14.0155 9.94577C14.8033 10.1376 15.3881 10.8479 15.3881 11.6947C15.3881 12.6888 14.5822 13.4947 13.5881 13.4947C12.7474 13.4947 12.0414 12.9184 11.8434 12.1393L8.53934 11.1953C8.21557 11.5078 7.77495 11.7 7.28943 11.7ZM9.03659 9.46531L12.2702 10.3892L11.3405 7.13525C11.3345 7.13375 11.3286 7.13222 11.3226 7.13066L9.02656 9.42673C9.03004 9.43953 9.03338 9.45239 9.03659 9.46531Z" fill="#9B4100"/>
<path fill-rule="evenodd" clip-rule="evenodd" d="M0.855469 9.00002L5.85547 0H15.9146L20.9146 9.00002L15.9146 18H5.85547L0.855469 9.00002ZM2.9146 9.00002L6.9146 16.2H14.8555L18.8555 9.00002L14.8555 1.8H6.9146L2.9146 9.00002Z" fill="#9B4100"/>
</svg>
