<svg width="111" height="118" viewBox="0 0 111 118" fill="none" xmlns="http://www.w3.org/2000/svg">
<path d="M93.6563 22.125L17.3438 22.125C11.5965 22.125 6.9375 27.0778 6.9375 33.1875L6.9375 84.8125C6.9375 90.9221 11.5965 95.875 17.3438 95.875L93.6563 95.875C99.4035 95.875 104.063 90.9221 104.063 84.8125V33.1875C104.063 27.0778 99.4035 22.125 93.6563 22.125Z" fill="#D81B60"/>
<path d="M6.9375 33.1875L6.9375 84.8125C6.9375 87.7465 8.03387 90.5602 9.98542 92.6349C11.937 94.7095 14.5838 95.875 17.3438 95.875H55.5L55.5 22.125L17.3438 22.125C14.5838 22.125 11.937 23.2905 9.98542 25.3651C8.03387 27.4398 6.9375 30.2535 6.9375 33.1875Z" fill="#F06292"/>
<path d="M83.8052 33.1869C83.349 33.1029 82.8816 33.1169 82.4306 33.2279C81.9795 33.339 81.554 33.545 81.179 33.8337C80.804 34.1223 80.4871 34.4879 80.2471 34.9088C80.0071 35.3297 79.8488 35.7974 79.7815 36.2844L77.7002 49.67C76.2038 48.1514 74.3654 47.0671 72.3614 46.5212C70.3573 45.9753 68.2549 45.9861 66.256 46.5525C64.257 47.119 62.4285 48.2221 60.9459 49.7559C59.4633 51.2898 58.3765 53.203 57.7896 55.3119H53.2109C52.6269 53.196 51.5399 51.2758 50.0548 49.7365C48.5696 48.1971 46.7364 47.0906 44.7319 46.5236C42.7274 45.9566 40.6192 45.9482 38.6108 46.4993C36.6024 47.0505 34.7615 48.1425 33.2656 49.67L31.219 36.2844C31.1517 35.7974 30.9934 35.3297 30.7534 34.9088C30.5134 34.4879 30.1965 34.1223 29.8215 33.8337C29.4465 33.545 29.021 33.339 28.5699 33.2279C28.1189 33.1169 27.6515 33.1029 27.1952 33.1869C26.7337 33.2581 26.2904 33.4275 25.8918 33.685C25.4932 33.9425 25.1476 34.2828 24.8756 34.6856C24.6036 35.0883 24.4108 35.5453 24.3087 36.0291C24.2066 36.5129 24.1974 37.0136 24.2815 37.5013L27.7502 59.6263C27.8553 60.2545 28.1119 60.8429 28.4949 61.3341C28.878 61.8254 29.3744 62.2025 29.9356 62.4288C30.6213 65.1302 32.1187 67.5194 34.1999 69.2324C36.2811 70.9454 38.8319 71.8883 41.4639 71.9175C44.0958 71.9468 46.6646 71.0607 48.779 69.3943C50.8934 67.7279 52.4375 65.3725 53.1762 62.6869H57.7549C58.4936 65.3725 60.0377 67.7279 62.1521 69.3943C64.2665 71.0607 66.8353 71.9468 69.4672 71.9175C72.0992 71.8883 74.65 70.9454 76.7312 69.2324C78.8124 67.5194 80.3099 65.1302 80.9956 62.4288C81.5568 62.2025 82.0531 61.8254 82.4362 61.3341C82.8192 60.8429 83.0758 60.2545 83.1809 59.6263L86.6496 37.5013C86.7343 37.0189 86.7275 36.5235 86.6297 36.044C86.532 35.5644 86.3452 35.1105 86.0803 34.7087C85.8154 34.3069 85.4777 33.9653 85.0871 33.704C84.6964 33.4427 84.2606 33.2669 83.8052 33.1869ZM41.6252 64.5306C40.5962 64.5306 39.5902 64.2062 38.7345 63.5984C37.8789 62.9907 37.212 62.1268 36.8182 61.1161C36.4244 60.1054 36.3213 58.9932 36.5221 57.9203C36.7229 56.8473 37.2184 55.8618 37.9461 55.0882C38.6738 54.3146 39.6009 53.7878 40.6102 53.5744C41.6195 53.361 42.6657 53.4705 43.6164 53.8892C44.5671 54.3078 45.3798 55.0168 45.9515 55.9264C46.5232 56.836 46.8284 57.9054 46.8284 58.9994C46.8284 60.4664 46.2802 61.8733 45.3044 62.9106C44.3286 63.9479 43.0052 64.5306 41.6252 64.5306ZM69.3752 64.5306C68.3462 64.5306 67.3402 64.2062 66.4845 63.5984C65.6289 62.9907 64.962 62.1268 64.5682 61.1161C64.1744 60.1054 64.0713 58.9932 64.2721 57.9203C64.4729 56.8473 64.9684 55.8618 65.6961 55.0882C66.4238 54.3146 67.3509 53.7878 68.3602 53.5744C69.3695 53.361 70.4156 53.4705 71.3664 53.8892C72.3171 54.3078 73.1298 55.0168 73.7015 55.9264C74.2732 56.836 74.5784 57.9054 74.5784 58.9994C74.5784 60.4664 74.0302 61.8733 73.0544 62.9106C72.0786 63.9479 70.7552 64.5306 69.3752 64.5306Z" fill="#F9A825"/>
<path d="M58.9688 22.125V40.5625C58.9688 41.5405 58.6033 42.4784 57.9528 43.17C57.3023 43.8615 56.42 44.25 55.5 44.25C54.58 44.25 53.6977 43.8615 53.0472 43.17C52.3967 42.4784 52.0312 41.5405 52.0312 40.5625V22.125H58.9688Z" fill="#E0E0E0"/>
<path d="M58.9688 77.4375V95.875H52.0312V77.4375C52.0312 76.4595 52.3967 75.5216 53.0472 74.83C53.6977 74.1385 54.58 73.75 55.5 73.75C56.42 73.75 57.3023 74.1385 57.9528 74.83C58.6033 75.5216 58.9688 76.4595 58.9688 77.4375Z" fill="#E0E0E0"/>
<path d="M53.2098 55.3125C52.6259 53.1967 51.5389 51.2765 50.0537 49.7371C48.5686 48.1978 46.7353 47.0912 44.7308 46.5242C42.7263 45.9572 40.6182 45.9489 38.6098 46.5C36.6014 47.0511 34.7604 48.1431 33.2645 49.6707L31.2179 36.285C31.1451 35.8008 30.9832 35.3365 30.7415 34.9188C30.4999 34.5011 30.1832 34.138 29.8095 33.8504C29.4359 33.5627 29.0126 33.3562 28.5639 33.2424C28.1151 33.1287 27.6497 33.11 27.1942 33.1875C26.7387 33.265 26.302 33.4371 25.909 33.694C25.5161 33.9509 25.1745 34.2876 24.904 34.6848C24.6334 35.082 24.4391 35.5319 24.3321 36.009C24.2251 36.486 24.2076 36.9808 24.2804 37.465L27.7492 59.59C27.8487 60.2249 28.1028 60.821 28.4861 61.3191C28.8695 61.8172 29.3688 62.2 29.9345 62.4294C30.6202 65.1309 32.1177 67.52 34.1989 69.233C36.2801 70.946 38.8309 71.8889 41.4628 71.9182C44.0948 71.9474 46.6636 71.0613 48.778 69.395C50.8924 67.7286 52.4365 65.3732 53.1751 62.6875H55.4992V55.3125H53.2098ZM41.6242 64.5313C40.5951 64.5313 39.5891 64.2069 38.7335 63.5991C37.8778 62.9913 37.2109 62.1274 36.8171 61.1167C36.4233 60.106 36.3203 58.9939 36.521 57.9209C36.7218 56.848 37.2174 55.8624 37.945 55.0888C38.6727 54.3153 39.5998 53.7885 40.6091 53.5751C41.6184 53.3616 42.6646 53.4712 43.6153 53.8898C44.5661 54.3085 45.3787 55.0174 45.9504 55.927C46.5222 56.8366 46.8273 57.906 46.8273 59C46.8273 60.467 46.2791 61.8739 45.3034 62.9112C44.3276 63.9485 43.0042 64.5313 41.6242 64.5313Z" fill="#FBC02D"/>
<path d="M52.0312 22.125V40.5625C52.0312 41.5405 52.3967 42.4784 53.0472 43.17C53.6977 43.8615 54.58 44.25 55.5 44.25V22.125H52.0312Z" fill="#F5F5F5"/>
<path d="M52.0312 77.4375V95.875H55.5V73.75C54.58 73.75 53.6977 74.1385 53.0472 74.83C52.3967 75.5216 52.0312 76.4595 52.0312 77.4375Z" fill="#F5F5F5"/>
<path d="M93.6563 22.125L17.3438 22.125C14.5838 22.125 11.937 23.2905 9.98542 25.3651C8.03387 27.4398 6.9375 30.2535 6.9375 33.1875L6.9375 84.8125C6.9375 87.7465 8.03387 90.5602 9.98542 92.6349C11.937 94.7095 14.5838 95.875 17.3438 95.875L93.6563 95.875C96.4162 95.875 99.063 94.7095 101.015 92.6349C102.966 90.5602 104.063 87.7465 104.063 84.8125V33.1875C104.063 30.2535 102.966 27.4398 101.015 25.3651C99.063 23.2905 96.4162 22.125 93.6563 22.125ZM97.125 84.8125C97.125 85.7905 96.7596 86.7284 96.109 87.42C95.4585 88.1115 94.5762 88.5 93.6563 88.5L17.3438 88.5C16.4238 88.5 15.5415 88.1115 14.891 87.42C14.2405 86.7284 13.875 85.7905 13.875 84.8125L13.875 33.1875C13.875 32.2095 14.2405 31.2716 14.891 30.58C15.5415 29.8885 16.4238 29.5 17.3438 29.5L93.6563 29.5C94.5762 29.5 95.4585 29.8885 96.109 30.58C96.7596 31.2716 97.125 32.2095 97.125 33.1875V84.8125Z" fill="#263238"/>
</svg>
