<svg width="85" height="82" viewBox="0 0 85 82" fill="none" xmlns="http://www.w3.org/2000/svg">
<path d="M24.2397 75.2398H15.1493C14.3456 75.2398 13.5749 74.9228 13.0066 74.3584C12.4384 73.794 12.1191 73.0285 12.1191 72.2304C12.1191 71.4322 12.4384 70.6667 13.0066 70.1023C13.5749 69.538 14.3456 69.2209 15.1493 69.2209H21.9065L24.2397 62.2389C24.5134 61.496 25.0707 60.89 25.7909 60.5521C26.5111 60.2141 27.3363 60.1714 28.088 60.4332C28.8455 60.6873 29.4713 61.2284 29.8289 61.9387C30.1864 62.649 30.2469 63.4708 29.997 64.2252L26.9668 73.2536C26.7625 73.8164 26.394 74.3059 25.9082 74.6597C25.4225 75.0135 24.8416 75.2155 24.2397 75.2398Z" fill="#FF8F00"/>
<path d="M12.1189 78.2449C10.9203 78.2449 9.74857 77.8919 8.75196 77.2306C7.75536 76.5692 6.9786 75.6292 6.51991 74.5293C6.06122 73.4295 5.94121 72.2193 6.17504 71.0518C6.40888 69.8842 6.98607 68.8117 7.83361 67.9699C8.68116 67.1282 9.76099 66.5549 10.9366 66.3227C12.1122 66.0904 13.3307 66.2096 14.438 66.6652C15.5454 67.1208 16.4919 67.8922 17.1578 68.882C17.8237 69.8718 18.1791 71.0356 18.1791 72.226C18.1791 73.8223 17.5407 75.3533 16.4041 76.482C15.2676 77.6108 13.7262 78.2449 12.1189 78.2449Z" fill="#1565C0"/>
<path d="M21.2093 15.0477C20.8084 15.0461 20.4118 14.9654 20.0425 14.8104C19.6732 14.6555 19.3385 14.4292 19.0579 14.1449L13.9067 9.02877H9.08873C8.28509 9.02877 7.51436 8.7117 6.9461 8.14732C6.37784 7.58293 6.05859 6.81746 6.05859 6.01929C6.05859 5.22113 6.37784 4.45566 6.9461 3.89127C7.51436 3.32688 8.28509 3.00982 9.08873 3.00982L15.149 3.00982C15.5478 3.00753 15.9431 3.08344 16.3123 3.23321C16.6815 3.38297 17.0173 3.60364 17.3004 3.88256L23.3607 9.90152C23.788 10.3225 24.0795 10.8603 24.1978 11.4463C24.3162 12.0324 24.2562 12.6403 24.0254 13.1923C23.7946 13.7444 23.4035 14.2157 22.902 14.5461C22.4004 14.8766 21.8111 15.0512 21.2093 15.0477Z" fill="#FF8F00"/>
<path d="M6.06028 12.0379C4.86167 12.0379 3.68998 11.6849 2.69337 11.0235C1.69676 10.3622 0.920002 9.42214 0.461314 8.32232C0.0026258 7.22249 -0.117388 6.01228 0.116449 4.84472C0.350286 3.67716 0.927471 2.60468 1.77502 1.76291C2.62256 0.921148 3.7024 0.347898 4.87798 0.115655C6.05356 -0.116588 7.27208 0.0026079 8.37945 0.458169C9.48682 0.913729 10.4333 1.68519 11.0992 2.67501C11.7651 3.66482 12.1206 4.82852 12.1206 6.01896C12.1206 7.61529 11.4821 9.14623 10.3455 10.275C9.20902 11.4038 7.66756 12.0379 6.06028 12.0379Z" fill="#1565C0"/>
<path d="M60.4492 12.0365H66.5095L69.5396 6.01758L75.5999 6.01758" fill="#F57C00"/>
<path d="M66.6646 15.0477L60.6044 15.0477C59.8007 15.0477 59.03 14.7306 58.4617 14.1662C57.8935 13.6018 57.5742 12.8364 57.5742 12.0382C57.5742 11.24 57.8935 10.4746 58.4617 9.91018C59.03 9.34579 59.8007 9.02872 60.6044 9.02872H64.7859L66.998 4.66498C67.2498 4.16867 67.635 3.75131 68.111 3.45915C68.587 3.16699 69.1352 3.01145 69.6948 3.00977L75.755 3.00977C76.5587 3.00977 77.3294 3.32683 77.8977 3.89122C78.4659 4.45561 78.7852 5.22108 78.7852 6.01924C78.7852 6.81741 78.4659 7.58288 77.8977 8.14727C77.3294 8.71165 76.5587 9.02872 75.755 9.02872L71.4219 9.02872L69.2403 13.3624C69.0022 13.8466 68.6376 14.2584 68.1845 14.5549C67.7314 14.8513 67.2065 15.0215 66.6646 15.0477Z" fill="#F57C00"/>
<path d="M78.9353 12.5516C77.7367 12.5516 76.565 12.1986 75.5684 11.5372C74.5718 10.8758 73.795 9.93581 73.3363 8.83599C72.8776 7.73617 72.7576 6.52596 72.9914 5.35839C73.2253 4.19083 73.8025 3.11835 74.65 2.27659C75.4976 1.43482 76.5774 0.86157 77.753 0.629327C78.9286 0.397084 80.1471 0.51628 81.2544 0.97184C82.3618 1.4274 83.3083 2.19887 83.9742 3.18868C84.6401 4.17849 84.9956 5.3422 84.9956 6.53263C84.9956 8.12896 84.3571 9.6599 83.2205 10.7887C82.084 11.9174 80.5426 12.5516 78.9353 12.5516Z" fill="#1565C0"/>
<path d="M79.5999 65.8484L67.4793 53.8105L63.631 48.875C63.3628 48.5541 63.0304 48.2921 62.6548 48.1056C62.2792 47.9191 61.8687 47.8122 61.4493 47.7916C61.0325 47.769 60.6155 47.8322 60.2244 47.9772C59.8334 48.1222 59.4767 48.3459 59.1767 48.6342L49.5712 58.084C49.2849 58.3627 49.0571 58.6951 48.9011 59.0619C48.745 59.4287 48.6638 59.8226 48.6622 60.2207C48.6599 60.6168 48.7363 61.0094 48.8871 61.3761C49.0379 61.7427 49.2601 62.0762 49.5409 62.3575L66.2976 79.0902C68.0007 80.7838 70.3113 81.7364 72.7215 81.7385C75.1316 81.7364 77.4422 80.7838 79.1454 79.0902L79.6605 78.5785C81.3456 76.879 82.285 74.5863 82.2736 72.2011C82.2623 69.8159 81.3011 67.5321 79.5999 65.8484Z" fill="#304046"/>
<path d="M42.2729 69.2163C60.6814 69.2163 75.6044 54.3951 75.6044 36.1121C75.6044 17.8291 60.6814 3.00781 42.2729 3.00781C23.8644 3.00781 8.94141 17.8291 8.94141 36.1121C8.94141 54.3951 23.8644 69.2163 42.2729 69.2163Z" fill="#01579B"/>
<path d="M42.2715 57.1815C53.986 57.1815 63.4825 47.7498 63.4825 36.1152C63.4825 24.4806 53.986 15.0488 42.2715 15.0488C30.557 15.0488 21.0605 24.4806 21.0605 36.1152C21.0605 47.7498 30.557 57.1815 42.2715 57.1815Z" fill="#BBDEFB"/>
<path d="M24.2416 75.4786H15.1512C14.3476 75.4786 13.5769 75.1615 13.0086 74.5971C12.4403 74.0327 12.1211 73.2673 12.1211 72.4691C12.1211 71.6709 12.4403 70.9055 13.0086 70.3411C13.5769 69.7767 14.3476 69.4596 15.1512 69.4596H22.0599L24.3932 62.4776C24.6503 61.7194 25.2002 61.0936 25.9219 60.7381C26.2793 60.562 26.668 60.4576 27.066 60.4308C27.464 60.4039 27.8634 60.4552 28.2414 60.5817C28.6195 60.7081 28.9687 60.9073 29.2692 61.1678C29.5697 61.4284 29.8157 61.7451 29.9929 62.1C30.1702 62.4549 30.2753 62.841 30.3024 63.2363C30.3294 63.6316 30.2777 64.0283 30.1504 64.4037L27.1203 73.4321C26.917 74.0299 26.5297 74.5491 26.0132 74.9163C25.4966 75.2835 24.8769 75.4802 24.2416 75.4786Z" fill="#FF8F00"/>
<path d="M12.1189 78.4871C10.9203 78.4871 9.74857 78.1341 8.75196 77.4728C7.75536 76.8114 6.9786 75.8714 6.51991 74.7715C6.06122 73.6717 5.94121 72.4615 6.17504 71.2939C6.40888 70.1264 6.98607 69.0539 7.83361 68.2121C8.68116 67.3704 9.76099 66.7971 10.9366 66.5649C12.1122 66.3326 13.3307 66.4518 14.438 66.9074C15.5454 67.3629 16.4919 68.1344 17.1578 69.1242C17.8237 70.114 18.1791 71.2777 18.1791 72.4682C18.1791 74.0645 17.5407 75.5955 16.4041 76.7242C15.2676 77.853 13.7262 78.4871 12.1189 78.4871Z" fill="#0277BD"/>
<path d="M21.2112 15.288C20.8125 15.2903 20.4171 15.2143 20.0479 15.0646C19.6788 14.9148 19.343 14.6941 19.0598 14.4152L13.9086 9.26901H9.09069C8.28704 9.26901 7.51632 8.95194 6.94805 8.38755C6.37979 7.82316 6.06055 7.05769 6.06055 6.25953C6.06055 5.46137 6.37979 4.69589 6.94805 4.13151C7.51632 3.56712 8.28704 3.25005 9.09069 3.25005L15.151 3.25005C15.5497 3.24776 15.9451 3.32367 16.3143 3.47344C16.6834 3.62321 17.0192 3.84388 17.3024 4.1228L23.3626 10.1418C23.6466 10.4215 23.8721 10.7544 24.0259 11.1211C24.1797 11.4878 24.2589 11.8812 24.2589 12.2785C24.2589 12.6758 24.1797 13.0691 24.0259 13.4359C23.8721 13.8026 23.6466 14.1354 23.3626 14.4152C23.0795 14.6941 22.7437 14.9148 22.3745 15.0646C22.0053 15.2143 21.61 15.2903 21.2112 15.288Z" fill="#FF8F00"/>
<path d="M6.06223 12.2782C4.86362 12.2782 3.69193 11.9251 2.69532 11.2638C1.69872 10.6024 0.921955 9.66237 0.463267 8.56255C0.00457893 7.46273 -0.115435 6.25252 0.118402 5.08495C0.352239 3.91739 0.929424 2.84491 1.77697 2.00315C2.62451 1.16138 3.70435 0.588132 4.87993 0.35589C6.05551 0.123647 7.27403 0.242842 8.3814 0.698403C9.48877 1.15396 10.4353 1.92543 11.1012 2.91524C11.7671 3.90505 12.1225 5.06876 12.1225 6.25919C12.1225 7.85552 11.484 9.38647 10.3475 10.5152C9.21097 11.644 7.66952 12.2782 6.06223 12.2782Z" fill="#0277BD"/>
<path d="M9.08984 36.3562C9.08984 45.136 12.6015 53.5562 18.8524 59.7645C25.1033 65.9727 33.5813 69.4605 42.4214 69.4605V3.25195C33.5813 3.25195 25.1033 6.73971 18.8524 12.948C12.6015 19.1562 9.08984 27.5764 9.08984 36.3562Z" fill="#0277BD"/>
<path d="M21.2109 36.3535C21.2109 41.9406 23.4457 47.2989 27.4235 51.2496C31.4013 55.2003 36.7964 57.4198 42.4219 57.4198V15.2871C36.7964 15.2871 31.4013 17.5066 27.4235 21.4573C23.4457 25.408 21.2109 30.7663 21.2109 36.3535Z" fill="#E3F2FD"/>
<path d="M79.6011 65.8496L69.2683 55.4368C73.439 49.8429 75.71 43.0764 75.7528 36.1159C75.7851 29.0139 73.5273 22.0881 69.3098 16.3527C65.0923 10.6172 59.1368 6.37348 52.3153 4.24277C45.4939 2.11207 38.1647 2.20635 31.4011 4.5118C24.6374 6.81725 18.7946 11.2128 14.7281 17.0548C10.6616 22.8967 8.58511 29.8783 8.80261 36.9771C9.0201 44.076 11.5202 50.9192 15.9368 56.5048C20.3534 62.0904 26.4545 66.125 33.3468 68.0177C40.2391 69.9105 47.5604 69.562 54.2388 67.0233L66.3594 79.0612C67.2063 79.9034 68.2126 80.571 69.3202 81.0255C70.4279 81.48 71.6151 81.7124 72.8136 81.7095C74.0121 81.7124 75.1993 81.48 76.307 81.0255C77.4146 80.571 78.4209 79.9034 79.2678 79.0612L79.7829 78.5496C81.4428 76.8356 82.3548 74.5404 82.3208 72.1625C82.2867 69.7845 81.3094 67.516 79.6011 65.8496ZM15.1501 36.1159C15.1501 30.759 16.7495 25.5223 19.7461 21.0681C22.7427 16.614 27.0019 13.1424 31.9851 11.0924C36.9682 9.04235 42.4516 8.50597 47.7417 9.55106C53.0318 10.5962 57.891 13.1758 61.705 16.9637C65.5189 20.7517 68.1163 25.5778 69.1685 30.8319C70.2208 36.0859 69.6807 41.5318 67.6166 46.481C65.5526 51.4302 62.0571 55.6604 57.5724 58.6365C53.0877 61.6127 47.815 63.2012 42.4213 63.2012C35.1885 63.2012 28.252 60.3476 23.1376 55.2681C18.0233 50.1887 15.1501 43.2994 15.1501 36.1159ZM75.268 74.3062L74.7226 74.8479C74.4394 75.1268 74.1036 75.3475 73.7345 75.4973C73.3653 75.647 72.97 75.723 72.5712 75.7207C72.1724 75.723 71.7771 75.647 71.4079 75.4973C71.0387 75.3475 70.7029 75.1268 70.4198 74.8479L59.8143 64.1944C61.7722 62.9896 63.5999 61.5879 65.2685 60.0112L75.268 70.0929C75.8232 70.6555 76.1342 71.4118 76.1342 72.1996C76.1342 72.9873 75.8232 73.7437 75.268 74.3062Z" fill="#263238"/>
</svg>
