<svg width="34" height="20" viewBox="0 0 34 20" fill="none" xmlns="http://www.w3.org/2000/svg">
<path d="M16.9741 0.701182C13.685 0.69841 10.4684 1.26127 7.7316 2.31844C4.99477 3.37561 2.8608 4.87958 1.59988 6.63994C0.338963 8.4003 0.00772586 10.3379 0.648236 12.2074C1.28875 14.0769 2.87218 15.7942 5.19796 17.1419C7.52375 18.4896 10.4874 19.4072 13.7136 19.7783C16.9398 20.1495 20.2834 19.9576 23.3213 19.2269C26.3591 18.4962 28.9546 17.2597 30.7789 15.6738C32.6033 14.0878 33.5746 12.2239 33.5698 10.3179C33.5698 7.76742 31.8214 5.32134 28.7091 3.51786C25.5968 1.71437 21.3756 0.701182 16.9741 0.701182ZM16.9741 17.7477C14.4383 17.7366 11.9652 17.29 9.86744 16.4644C7.76966 15.6388 6.1415 14.4712 5.18881 13.1094C4.23612 11.7476 4.0017 10.2527 4.5152 8.81366C5.0287 7.37464 6.26695 6.05615 8.07357 5.02495C9.88018 3.99376 12.174 3.29616 14.6648 3.02035C17.1556 2.74455 19.7316 2.90291 22.0671 3.47546C24.4025 4.04801 26.3926 5.00902 27.7855 6.23695C29.1785 7.46487 29.9118 8.90455 29.8927 10.374C29.8801 11.3545 29.5328 12.3238 28.8706 13.2261C28.2085 14.1284 27.2446 14.9459 26.0348 15.6314C24.8249 16.3168 23.3929 16.8567 21.8212 17.22C20.2496 17.5832 18.5693 17.7626 16.8774 17.7477H16.9741Z" fill="white"/>
</svg>
