<svg width="30" height="18" viewBox="0 0 30 18" fill="none" xmlns="http://www.w3.org/2000/svg">
<path d="M14.9742 0.316406C11.1135 0.334896 7.42165 1.2366 4.70294 2.82514C1.98422 4.41367 0.458855 6.56033 0.458987 8.7976C0.456942 10.8986 1.81188 12.9239 4.25716 14.4751L1.42673 17.0405L7.25696 15.9471C9.16195 16.6058 11.3023 17.0028 13.5133 17.1075C15.7244 17.2122 17.9474 17.0218 20.0117 16.551C22.076 16.0802 23.9265 15.3414 25.4212 14.3915C26.916 13.4416 28.0151 12.3058 28.6341 11.0714C29.2531 9.83693 29.3756 8.53669 28.9922 7.27053C28.6087 6.00436 27.7296 4.80599 26.4222 3.76743C25.1148 2.72888 23.414 1.87778 21.4505 1.27954C19.4869 0.681295 17.3128 0.351813 15.0952 0.316406H14.9742ZM8.99886 9.44248C8.6373 9.44251 8.29007 9.36022 8.03215 9.21339C7.77424 9.06656 7.62624 8.86689 7.6199 8.6574C7.62612 8.44661 7.77341 8.24545 8.03068 8.09637C8.28795 7.9473 8.63509 7.86199 8.99886 7.85838C9.36037 7.86206 9.70494 7.94786 9.95834 8.09731C10.2117 8.24677 10.3537 8.44789 10.3536 8.6574C10.3536 8.86561 10.2108 9.06531 9.95671 9.21253C9.70265 9.35976 9.35817 9.44248 8.99886 9.44248ZM15.0227 9.44248C14.8427 9.44434 14.6639 9.4254 14.4967 9.38678C14.3295 9.34816 14.1774 9.29062 14.049 9.21754C13.9206 9.14445 13.8187 9.05728 13.7491 8.96111C13.6795 8.86494 13.6437 8.76169 13.6437 8.6574C13.6177 8.54455 13.6337 8.42979 13.6905 8.3208C13.7473 8.21181 13.8437 8.1111 13.9731 8.02544C14.1026 7.93978 14.262 7.87114 14.4409 7.82411C14.6198 7.77708 14.8141 7.75275 15.0106 7.75275C15.207 7.75275 15.4013 7.77708 15.5802 7.82411C15.7592 7.87114 15.9186 7.93978 16.048 8.02544C16.1774 8.1111 16.2738 8.21181 16.3306 8.3208C16.3874 8.42979 16.4034 8.54455 16.3774 8.6574C16.3774 8.86561 16.2347 9.06531 15.9807 9.21253C15.7266 9.35976 15.382 9.44248 15.0227 9.44248ZM21.2158 9.44248C20.8543 9.44251 20.5072 9.36022 20.2493 9.21339C19.9914 9.06656 19.8432 8.86689 19.8369 8.6574C19.8369 8.44548 19.9821 8.24225 20.2407 8.09239C20.4993 7.94254 20.8501 7.85838 21.2158 7.85838C21.5816 7.85838 21.9324 7.94254 22.191 8.09239C22.4496 8.24225 22.5948 8.44548 22.5948 8.6574C22.5885 8.86689 22.4403 9.06656 22.1824 9.21339C21.9245 9.36022 21.5774 9.44251 21.2158 9.44248Z" fill="white"/>
</svg>
