<svg width="89" height="89" viewBox="0 0 89 89" fill="none" xmlns="http://www.w3.org/2000/svg">
<path d="M44.2441 0.861328C20.0696 0.861328 0.472656 20.4583 0.472656 44.6328C0.472656 68.8072 20.0696 88.4042 44.2441 88.4042C68.4186 88.4042 88.0157 68.8072 88.0157 44.6328C88.0156 20.4583 68.4182 0.861328 44.2441 0.861328ZM32.5658 65.7943H22.9553V34.7456H32.5658V65.7943ZM27.7148 30.6795C24.5761 30.6795 22.0316 28.1143 22.0316 24.9505C22.0316 21.7864 24.5764 19.2213 27.7148 19.2213C30.8531 19.2213 33.3975 21.7864 33.3975 24.9505C33.3977 28.1145 30.8533 30.6795 27.7148 30.6795ZM68.581 65.7943H59.0171V49.4963C59.0171 45.0262 57.3192 42.531 53.7846 42.531C49.9378 42.531 47.9281 45.1298 47.9281 49.4963V65.7943H38.7106V34.7456H47.9281V38.9273C47.9281 38.9273 50.7008 33.7985 57.2844 33.7985C63.8682 33.7985 68.5812 37.8185 68.5812 46.1347L68.581 65.7943Z" fill="white"/>
</svg>
