<svg width="5" height="7" viewBox="0 0 5 7" fill="none" xmlns="http://www.w3.org/2000/svg">
<path d="M4.96658 4.65382V1.3875C4.96028 1.25238 4.86311 1.12403 4.69591 1.02977C4.52872 0.935505 4.30472 0.882763 4.07145 0.882813C3.84046 0.882813 3.61889 0.935978 3.45555 1.03062C3.29222 1.12527 3.20039 1.25366 3.20039 1.3875V4.2613L1.04732 5.49495C0.881851 5.59203 0.789062 5.72295 0.789063 5.8594C0.789062 5.99585 0.881851 6.12682 1.04732 6.2239C1.12824 6.27095 1.22438 6.30829 1.33025 6.33376C1.43611 6.35924 1.54948 6.37235 1.66411 6.37235C1.77874 6.37235 1.89226 6.35924 1.99812 6.33376C2.10399 6.30829 2.20013 6.27095 2.28104 6.2239L4.94236 4.69588L4.96658 4.65382Z" fill="white"/>
</svg>
