<svg width="38" height="22" viewBox="0 0 38 22" fill="none" xmlns="http://www.w3.org/2000/svg">
<path d="M37.0938 13.1763V9.36326H32.9328C32.5745 8.48934 31.9697 7.65569 31.1426 6.89598L34.1182 5.18572L29.4734 2.49419L26.5219 4.20445C25.1983 3.73271 23.7527 3.38718 22.24 3.18108V0.755859H15.684V3.18108C14.1806 3.39019 12.7436 3.73557 11.4262 4.20445L8.47481 2.49419L3.82985 5.1577L6.78135 6.86796C5.94211 7.63739 5.32134 8.47986 4.94274 9.36326H0.830078V13.1623H4.94274C5.29841 14.0388 5.89462 14.8766 6.7087 15.6436L3.75735 17.3538L8.40216 20.0454L11.3537 18.3351C12.667 18.8055 14.1056 19.1465 15.6113 19.3444V21.7697H22.1674V19.3444C23.682 19.149 25.1294 18.8078 26.4494 18.3351L29.4007 20.0454L34.0457 17.3538L31.07 15.6436C31.9011 14.88 32.5061 14.0414 32.8602 13.1623L37.0938 13.1763ZM18.974 15.7136C17.4552 15.7164 15.9692 15.4578 14.7044 14.9706C13.4396 14.4834 12.4529 13.7894 11.8694 12.9769C11.286 12.1643 11.1321 11.2696 11.4272 10.4063C11.7223 9.54293 12.4532 8.74985 13.5272 8.12752C14.6011 7.50519 15.9698 7.08163 17.4597 6.91061C18.9495 6.73959 20.4936 6.82879 21.8958 7.16687C23.2981 7.50496 24.4955 8.07673 25.3364 8.80967C26.1772 9.5426 26.6235 10.4037 26.6188 11.2838C26.6188 12.4587 25.8134 13.5854 24.3797 14.4162C22.9461 15.2469 21.0015 15.7136 18.974 15.7136ZM18.974 12.9099C18.419 12.9099 17.8764 12.8146 17.4149 12.6359C16.9534 12.4572 16.5937 12.2032 16.3813 11.9061C16.1689 11.6089 16.1134 11.282 16.2217 10.9666C16.33 10.6511 16.5972 10.3613 16.9897 10.1339C17.3821 9.9065 17.8822 9.75165 18.4265 9.68891C18.9709 9.62616 19.5351 9.65836 20.0479 9.78144C20.5607 9.90452 20.9991 10.1129 21.3074 10.3803C21.6158 10.6478 21.7804 10.9622 21.7804 11.2838C21.7804 11.7151 21.4846 12.1287 20.9584 12.4337C20.4321 12.7386 19.7183 12.9099 18.974 12.9099Z" fill="white"/>
</svg>
