<svg width="111" height="50" viewBox="0 0 111 50" fill="none" xmlns="http://www.w3.org/2000/svg">
<path d="M0.585938 0.0175781H72.3636C77.3185 0.0175775 82.2248 0.583348 86.8022 1.68254C91.3796 2.78172 95.5385 4.39277 99.041 6.42367C102.543 8.45457 105.321 10.8655 107.215 13.5187C109.109 16.1719 110.082 19.0153 110.079 21.8865V49.5591H38.3012C33.3484 49.5591 28.4441 48.9938 23.8682 47.8955C19.2924 46.7972 15.1346 45.1874 11.6324 43.1579C8.13021 41.1285 5.35219 38.7193 3.45682 36.0677C1.56145 33.4161 0.585938 30.5742 0.585938 27.7042V0.0175781Z" fill="url(#paint0_linear_3038_531)"/>
<defs>
<linearGradient id="paint0_linear_3038_531" x1="56448.7" y1="18288.3" x2="58383.4" y2="22564.2" gradientUnits="userSpaceOnUse">
<stop stop-color="#5C007D"/>
<stop offset="1" stop-color="#D11941"/>
</linearGradient>
</defs>
</svg>
