<svg width="82" height="84" viewBox="0 0 82 84" fill="none" xmlns="http://www.w3.org/2000/svg">
<path d="M41.075 83.0295C63.4526 83.0295 81.5933 64.6258 81.5933 41.9239C81.5933 19.222 63.4526 0.818359 41.075 0.818359C18.6974 0.818359 0.556641 19.222 0.556641 41.9239C0.556641 64.6258 18.6974 83.0295 41.075 83.0295Z" fill="#FF90E8"/>
<path d="M37.5569 62.6399C25.688 62.6399 18.7063 52.9822 18.7063 40.9687C18.7063 28.4845 26.3864 18.3555 41.0479 18.3555C56.175 18.3555 61.295 28.7198 61.5276 34.6087H50.5897C50.357 31.311 47.5643 26.3643 40.8151 26.3643C33.6007 26.3643 28.9461 32.7243 28.9461 40.4976C28.9461 48.271 33.6007 54.631 40.8151 54.631C47.3315 54.631 50.1242 49.4488 51.2879 44.2664H40.8151V40.0267H62.7902V61.6978H53.1494V48.0356C52.4513 52.9822 49.4261 62.6399 37.5569 62.6399Z" fill="black"/>
</svg>
